<?xml version="1.0" encoding="utf-8"?>
<!-- Generator: Adobe Illustrator 16.0.0, SVG Export Plug-In . SVG Version: 6.00 Build 0)  -->
<!DOCTYPE svg PUBLIC "-//W3C//DTD SVG 1.1//EN" "http://www.w3.org/Graphics/SVG/1.1/DTD/svg11.dtd">
<svg version="1.1" id="Layer_1" xmlns="http://www.w3.org/2000/svg" xmlns:xlink="http://www.w3.org/1999/xlink" x="0px" y="0px"
	 width="2560px" height="1600px" viewBox="0 0 2560 1600" enable-background="new 0 0 2560 1600" xml:space="preserve">
<rect x="-8.504" y="-8.504" fill="#4F2D1A" stroke="#4F2D1A" stroke-width="2.8149" stroke-miterlimit="10" width="2577.008" height="1617.008"/>
<g>
	<g>
		<g>
			
				<line fill="none" stroke="#FFFFFF" stroke-width="1.9553" stroke-linecap="round" stroke-miterlimit="10" x1="2489.976" y1="1027.887" x2="2489.976" y2="1024.91"/>
			
				<line fill="none" stroke="#FFFFFF" stroke-width="1.9553" stroke-linecap="round" stroke-miterlimit="10" stroke-dasharray="5.9937,8.9905,5.9937,8.9905" x1="2489.976" y1="1015.92" x2="2489.976" y2="990.446"/>
			
				<line fill="none" stroke="#FFFFFF" stroke-width="1.9553" stroke-linecap="round" stroke-miterlimit="10" stroke-dasharray="5.9937,8.9905,5.9937,8.9905,5.9937,8.9905" x1="2489.976" y1="985.951" x2="2489.976" y2="181.312"/>
			<polyline fill="none" stroke="#FFFFFF" stroke-width="1.9553" stroke-linecap="round" stroke-miterlimit="10" points="
				2489.976,176.816 2489.976,173.84 2486.999,173.84 			"/>
			
				<line fill="none" stroke="#FFFFFF" stroke-width="1.9553" stroke-linecap="round" stroke-miterlimit="10" stroke-dasharray="5.8187,8.7281,5.8187,8.7281" x1="2478.271" y1="173.84" x2="2453.541" y2="173.84"/>
			
				<line fill="none" stroke="#FFFFFF" stroke-width="1.9553" stroke-linecap="round" stroke-miterlimit="10" stroke-dasharray="5.8187,8.7281,5.8187,8.7281,5.8187,8.7281" x1="2449.178" y1="173.84" x2="1886.215" y2="173.84"/>
			
				<line fill="none" stroke="#FFFFFF" stroke-width="1.9553" stroke-linecap="round" stroke-miterlimit="10" x1="1881.851" y1="173.84" x2="1878.874" y2="173.84"/>
		</g>
	</g>
	<g>
		<g>
			
				<line fill="none" stroke="#FFFFFF" stroke-width="1.9553" stroke-linecap="round" stroke-miterlimit="10" x1="70.024" y1="1027.887" x2="70.024" y2="1024.91"/>
			
				<line fill="none" stroke="#FFFFFF" stroke-width="1.9553" stroke-linecap="round" stroke-miterlimit="10" stroke-dasharray="5.9937,8.9905,5.9937,8.9905" x1="70.024" y1="1015.92" x2="70.024" y2="990.446"/>
			
				<line fill="none" stroke="#FFFFFF" stroke-width="1.9553" stroke-linecap="round" stroke-miterlimit="10" stroke-dasharray="5.9937,8.9905,5.9937,8.9905,5.9937,8.9905" x1="70.024" y1="985.951" x2="70.024" y2="181.312"/>
			<polyline fill="none" stroke="#FFFFFF" stroke-width="1.9553" stroke-linecap="round" stroke-miterlimit="10" points="
				70.024,176.816 70.024,173.84 73.001,173.84 			"/>
			
				<line fill="none" stroke="#FFFFFF" stroke-width="1.9553" stroke-linecap="round" stroke-miterlimit="10" stroke-dasharray="5.8187,8.7281,5.8187,8.7281" x1="81.729" y1="173.84" x2="106.458" y2="173.84"/>
			
				<line fill="none" stroke="#FFFFFF" stroke-width="1.9553" stroke-linecap="round" stroke-miterlimit="10" stroke-dasharray="5.8187,8.7281,5.8187,8.7281,5.8187,8.7281" x1="110.823" y1="173.84" x2="673.785" y2="173.84"/>
			
				<line fill="none" stroke="#FFFFFF" stroke-width="1.9553" stroke-linecap="round" stroke-miterlimit="10" x1="678.149" y1="173.84" x2="681.125" y2="173.84"/>
		</g>
	</g>
</g>
<g>
	<g>
		<path fill-rule="evenodd" clip-rule="evenodd" fill="#F4F2E1" d="M2587.098,1825.183v-341.839
			c-4.621-0.404-9.331-0.603-14.117-0.569c-155.015,0.994-383.625,106.576-637.65,40.932
			c-254.051-65.653-292.865-66.758-683.795,22.849c-390.934,89.598-549.547,9.697-914.153-63.78
			c-209.814-42.3-313.964-14.785-364.59,16.199v326.209H2587.098z"/>
	</g>
	<g opacity="0.5">
		<path fill-rule="evenodd" clip-rule="evenodd" fill="#F4F2E1" d="M2587.098,1732.166v-341.845c-4.621-0.402-9.331-0.6-14.117-0.57
			c-155.015,0.996-383.625,106.586-637.65,40.938c-254.051-65.655-292.865-66.757-683.795,22.85
			c-390.934,89.598-549.547,9.693-914.153-63.787c-209.814-42.287-313.964-14.778-364.59,16.203v326.212H2587.098z"/>
	</g>
	<g opacity="0.7">
		<path fill-rule="evenodd" clip-rule="evenodd" fill="#F4F2E1" d="M-27.204,1763.118v-341.84c4.623-0.41,9.331-0.6,14.129-0.57
			c154.997,0.992,383.613,106.576,637.646,40.93c254.046-65.646,292.852-66.758,683.781,22.846
			c390.95,89.601,549.55,9.709,914.146-63.775c209.83-42.293,313.977-14.787,364.6,16.188v326.223H-27.204z"/>
	</g>
	<g>
		<g>
			<g>
				<g>
					<line fill="#F4F2E1" x1="220.062" y1="1321.491" x2="220.062" y2="1499.118"/>
				</g>
				<g>
					<path fill="#F4F2E1" d="M220.062,1509.687c-5.354,0-9.703-4.734-9.703-10.568v-177.627c0-5.829,4.35-10.562,9.703-10.562
						c5.353,0,9.7,4.733,9.7,10.562v177.627C229.762,1504.952,225.415,1509.687,220.062,1509.687z"/>
				</g>
			</g>
			<g>
				<g>
					<path fill="#EAE8D8" d="M220.986,1199.495c-1.364,0-2.562-0.266-3.683-0.638l-90.692,246.413h95.426v-245.888
						C221.68,1199.413,221.358,1199.495,220.986,1199.495z"/>
				</g>
			</g>
			<g>
				<g>
					<path fill="#F4F2E1" d="M224.78,1198.819c-1.15,0.396-2.386,0.676-3.794,0.676c-0.328,0-0.608-0.074-0.924-0.098v245.873
						h95.428L224.78,1198.819z"/>
				</g>
			</g>
		</g>
	</g>
	<g>
		<g>
			<g>
				<g>
					<line fill="#F4F2E1" x1="595.362" y1="1383.574" x2="595.362" y2="1561.192"/>
				</g>
				<g>
					<path fill="#F4F2E1" d="M595.362,1571.761c-5.349,0-9.695-4.729-9.695-10.568v-177.618c0-5.835,4.346-10.571,9.695-10.571
						c5.351,0,9.704,4.736,9.704,10.571v177.618C605.066,1567.032,600.713,1571.761,595.362,1571.761z"/>
				</g>
			</g>
			<g>
				<g>
					<path fill="#EAE8D8" d="M596.29,1261.572c-1.36,0-2.56-0.266-3.678-0.638l-90.698,246.412h95.424v-245.89
						C596.989,1261.481,596.67,1261.572,596.29,1261.572z"/>
				</g>
			</g>
			<g>
				<g>
					<path fill="#F4F2E1" d="M600.09,1260.896c-1.156,0.396-2.386,0.676-3.8,0.676c-0.327,0-0.608-0.077-0.927-0.098v245.872h95.432
						L600.09,1260.896z"/>
				</g>
			</g>
		</g>
	</g>
	<g>
		<g>
			<g>
				<g>
					<line fill="#F4F2E1" x1="1260.411" y1="1383.574" x2="1260.411" y2="1561.192"/>
				</g>
				<g>
					<path fill="#F4F2E1" d="M1260.411,1571.761c-5.351,0-9.697-4.729-9.697-10.568v-177.618c0-5.835,4.347-10.571,9.697-10.571
						c5.349,0,9.695,4.736,9.695,10.571v177.618C1270.106,1567.032,1265.76,1571.761,1260.411,1571.761z"/>
				</g>
			</g>
			<g>
				<g>
					<path fill="#EAE8D8" d="M1261.329,1261.572c-1.359,0-2.553-0.266-3.685-0.638l-90.681,246.412h95.423v-245.89
						C1262.036,1261.481,1261.701,1261.572,1261.329,1261.572z"/>
				</g>
			</g>
			<g>
				<g>
					<path fill="#F4F2E1" d="M1265.137,1260.896c-1.156,0.396-2.386,0.676-3.808,0.676c-0.326,0-0.608-0.077-0.918-0.098v245.872
						h95.435L1265.137,1260.896z"/>
				</g>
			</g>
		</g>
	</g>
	<g>
		<g>
			<g>
				<g>
					<line fill="#F4F2E1" x1="1732.889" y1="1327.713" x2="1732.889" y2="1505.349"/>
				</g>
				<g>
					<path fill="#F4F2E1" d="M1732.889,1515.911c-5.348,0-9.694-4.734-9.694-10.562v-177.636c0-5.835,4.347-10.554,9.694-10.554
						c5.35,0,9.697,4.719,9.697,10.554v177.636C1742.586,1511.177,1738.238,1515.911,1732.889,1515.911z"/>
				</g>
			</g>
			<g>
				<g>
					<path fill="#EAE8D8" d="M1733.815,1205.72c-1.367,0-2.565-0.266-3.677-0.632l-90.698,246.407h95.44v-245.896
						C1734.516,1205.644,1734.196,1205.72,1733.815,1205.72z"/>
				</g>
			</g>
			<g>
				<g>
					<path fill="#F4F2E1" d="M1737.615,1205.044c-1.154,0.396-2.385,0.676-3.8,0.676c-0.319,0-0.604-0.076-0.927-0.101v245.876
						h95.441L1737.615,1205.044z"/>
				</g>
			</g>
		</g>
	</g>
	<g>
		<g>
			<g>
				<g>
					<line fill="#F4F2E1" x1="2321.16" y1="1351.376" x2="2321.16" y2="1529.019"/>
				</g>
				<g>
					<path fill="#F4F2E1" d="M2321.16,1539.571c-5.35,0-9.682-4.725-9.682-10.553v-177.643c0-5.828,4.332-10.562,9.682-10.562
						c5.348,0,9.713,4.733,9.713,10.562v177.643C2330.873,1534.847,2326.508,1539.571,2321.16,1539.571z"/>
				</g>
			</g>
			<g>
				<g>
					<path fill="#EAE8D8" d="M2322.088,1229.381c-1.353,0-2.555-0.266-3.68-0.623l-90.681,246.407h95.409v-245.896
						C2322.803,1229.298,2322.469,1229.381,2322.088,1229.381z"/>
				</g>
			</g>
			<g>
				<g>
					<path fill="#F4F2E1" d="M2325.889,1228.704c-1.141,0.396-2.387,0.677-3.801,0.677c-0.318,0-0.608-0.077-0.928-0.098v245.882
						h95.438L2325.889,1228.704z"/>
				</g>
			</g>
		</g>
	</g>
	<g>
		<g>
			<g>
				<g>
					<line fill="#F4F2E1" x1="955.773" y1="1476.136" x2="955.773" y2="1600.748"/>
				</g>
				<g>
					<path fill="#F4F2E1" d="M955.773,1608.157c-3.753,0-6.8-3.32-6.8-7.409v-124.612c0-4.086,3.047-7.399,6.8-7.399
						c3.754,0,6.802,3.313,6.802,7.399v124.612C962.575,1604.837,959.527,1608.157,955.773,1608.157z"/>
				</g>
			</g>
			<g>
				<g>
					<path fill="#F4F2E1" d="M956.42,1390.558c-0.95,0-1.794-0.184-2.584-0.44l-63.615,172.853h66.936V1390.48
						C956.913,1390.495,956.678,1390.558,956.42,1390.558z"/>
				</g>
			</g>
			<g>
				<g>
					<path fill="#F4F2E1" d="M959.086,1390.085c-0.797,0.274-1.679,0.473-2.666,0.473c-0.236,0-0.426-0.053-0.647-0.077v172.489
						h66.945L959.086,1390.085z"/>
				</g>
			</g>
		</g>
	</g>
	<g>
		<g>
			<g>
				<g>
					<line fill="#F4F2E1" x1="1381.849" y1="1397.116" x2="1381.849" y2="1521.73"/>
				</g>
				<g>
					<path fill="#F4F2E1" d="M1381.849,1529.147c-3.756,0-6.81-3.327-6.81-7.417v-124.614c0-4.09,3.054-7.403,6.81-7.403
						c3.753,0,6.81,3.313,6.81,7.403v124.614C1388.658,1525.82,1385.602,1529.147,1381.849,1529.147z"/>
				</g>
			</g>
			<g>
				<g>
					<path fill="#F4F2E1" d="M1382.486,1311.537c-0.941,0-1.793-0.175-2.584-0.44l-63.615,172.855h66.943v-172.501
						C1382.988,1311.476,1382.761,1311.537,1382.486,1311.537z"/>
				</g>
			</g>
			<g>
				<g>
					<path fill="#F4F2E1" d="M1385.162,1311.059c-0.807,0.271-1.672,0.479-2.676,0.479c-0.228,0-0.426-0.062-0.638-0.077v172.492
						h66.943L1385.162,1311.059z"/>
				</g>
			</g>
		</g>
	</g>
	<g>
		<g>
			<g>
				<g>
					<line fill="#F4F2E1" x1="2077.062" y1="1428.507" x2="2077.062" y2="1553.128"/>
				</g>
				<g>
					<path fill="#F4F2E1" d="M2077.062,1560.53c-3.756,0-6.794-3.322-6.794-7.402v-124.621c0-4.08,3.038-7.402,6.794-7.402
						c3.754,0,6.807,3.322,6.807,7.402v124.621C2083.869,1557.208,2080.816,1560.53,2077.062,1560.53z"/>
				</g>
			</g>
			<g>
				<g>
					<path fill="#F4F2E1" d="M2077.73,1342.935c-0.957,0-1.793-0.189-2.599-0.443l-63.615,172.855h66.943v-172.495
						C2078.203,1342.866,2077.976,1342.935,2077.73,1342.935z"/>
				</g>
			</g>
			<g>
				<g>
					<path fill="#F4F2E1" d="M2080.391,1342.456c-0.806,0.28-1.671,0.479-2.66,0.479c-0.242,0-0.439-0.062-0.668-0.077v172.489
						h66.959L2080.391,1342.456z"/>
				</g>
			</g>
		</g>
	</g>
	<g>
		<g>
			<g>
				<g>
					<line fill="#F4F2E1" x1="2451.4" y1="1376.089" x2="2451.4" y2="1500.698"/>
				</g>
				<g>
					<path fill="#F4F2E1" d="M2451.4,1508.106c-3.752,0-6.809-3.319-6.809-7.408v-124.609c0-4.102,3.057-7.415,6.809-7.415
						c3.754,0,6.81,3.313,6.81,7.415v124.609C2458.21,1504.787,2455.154,1508.106,2451.4,1508.106z"/>
				</g>
			</g>
			<g>
				<g>
					<path fill="#F4F2E1" d="M2452.039,1290.501c-0.942,0-1.793-0.183-2.584-0.443l-63.615,172.855h66.943v-172.482
						C2452.541,1290.448,2452.299,1290.501,2452.039,1290.501z"/>
				</g>
			</g>
			<g>
				<g>
					<path fill="#F4F2E1" d="M2454.714,1290.038c-0.806,0.271-1.687,0.463-2.675,0.463c-0.229,0-0.426-0.047-0.639-0.07v172.482
						h66.943L2454.714,1290.038z"/>
				</g>
			</g>
		</g>
	</g>
	<g>
		<g>
			<g>
				<g>
					<line fill="#F4F2E1" x1="334.946" y1="1350.015" x2="334.946" y2="1474.639"/>
				</g>
				<g>
					<path fill="#F4F2E1" d="M334.946,1482.042c-3.753,0-6.805-3.322-6.805-7.403v-124.624c0-4.086,3.051-7.408,6.805-7.408
						c3.75,0,6.805,3.322,6.805,7.408v124.624C341.75,1478.72,338.696,1482.042,334.946,1482.042z"/>
				</g>
			</g>
			<g>
				<g>
					<path fill="#F4F2E1" d="M335.593,1264.445c-0.951,0-1.79-0.192-2.588-0.458l-63.616,172.864h66.94V1264.36
						C336.083,1264.374,335.854,1264.445,335.593,1264.445z"/>
				</g>
			</g>
			<g>
				<g>
					<path fill="#F4F2E1" d="M338.263,1263.967c-0.813,0.272-1.68,0.479-2.67,0.479c-0.229,0-0.43-0.071-0.647-0.077v172.483h66.948
						L338.263,1263.967z"/>
				</g>
			</g>
		</g>
	</g>
	<g>
		<g>
			<g>
				<g>
					<line fill="#F4F2E1" x1="782.608" y1="1489.749" x2="782.608" y2="1578.396"/>
				</g>
				<g>
					<path fill="#F4F2E1" d="M782.608,1583.675c-2.674,0-4.847-2.371-4.847-5.279v-88.646c0-2.918,2.173-5.274,4.847-5.274
						c2.667,0,4.841,2.356,4.841,5.274v88.646C787.449,1581.304,785.275,1583.675,782.608,1583.675z"/>
				</g>
			</g>
			<g>
				<g>
					<path fill="#F4F2E1" d="M783.064,1428.85c-0.676,0-1.277-0.13-1.839-0.31l-45.257,122.984h47.62v-122.719
						C783.414,1428.812,783.247,1428.85,783.064,1428.85z"/>
				</g>
			</g>
			<g>
				<g>
					<path fill="#F4F2E1" d="M784.964,1428.507c-0.577,0.207-1.192,0.343-1.9,0.343c-0.167,0-0.304-0.03-0.456-0.044v122.719h47.629
						L784.964,1428.507z"/>
				</g>
			</g>
		</g>
	</g>
	<g>
		<g>
			<g>
				<g>
					<line fill="#F4F2E1" x1="1827.828" y1="1404.751" x2="1827.828" y2="1493.41"/>
				</g>
				<g>
					<path fill="#F4F2E1" d="M1827.828,1498.684c-2.661,0-4.85-2.362-4.85-5.273v-88.659c0-2.902,2.188-5.264,4.85-5.264
						c2.675,0,4.848,2.361,4.848,5.264v88.659C1832.676,1496.321,1830.503,1498.684,1827.828,1498.684z"/>
				</g>
			</g>
			<g>
				<g>
					<path fill="#F4F2E1" d="M1828.282,1343.867c-0.683,0-1.261-0.136-1.84-0.318l-45.255,122.991h47.626v-122.731
						C1828.634,1343.823,1828.48,1343.867,1828.282,1343.867z"/>
				</g>
			</g>
			<g>
				<g>
					<path fill="#F4F2E1" d="M1830.181,1343.524c-0.575,0.207-1.185,0.343-1.898,0.343c-0.15,0-0.304-0.044-0.454-0.053v122.726
						h47.625L1830.181,1343.524z"/>
				</g>
			</g>
		</g>
	</g>
	<g>
		<g>
			<g>
				<g>
					<line fill="#F4F2E1" x1="1565.904" y1="1399.972" x2="1565.904" y2="1488.638"/>
				</g>
				<g>
					<path fill="#F4F2E1" d="M1565.904,1493.912c-2.676,0-4.85-2.371-4.85-5.274v-88.666c0-2.903,2.174-5.257,4.85-5.257
						c2.672,0,4.83,2.354,4.83,5.257v88.666C1570.734,1491.541,1568.576,1493.912,1565.904,1493.912z"/>
				</g>
			</g>
			<g>
				<g>
					<path fill="#F4F2E1" d="M1566.358,1339.09c-0.685,0-1.276-0.139-1.84-0.313l-45.272,122.982h47.644v-122.723
						C1566.707,1339.052,1566.541,1339.09,1566.358,1339.09z"/>
				</g>
			</g>
			<g>
				<g>
					<path fill="#F4F2E1" d="M1568.257,1338.747c-0.593,0.204-1.185,0.343-1.898,0.343c-0.169,0-0.304-0.038-0.454-0.048v122.717
						h47.625L1568.257,1338.747z"/>
				</g>
			</g>
		</g>
	</g>
	<g>
		<path fill-rule="evenodd" clip-rule="evenodd" fill="#E5E3D3" d="M2587.098,1673.308v-136.967
			c-50.623-34.914-154.77-65.922-364.6-18.26c-364.596,82.803-523.195,172.84-914.146,71.877
			c-390.929-100.971-429.735-99.73-683.781-25.752c-254.034,73.98-482.65-45-637.646-46.125c-4.798-0.035-9.506,0.183-14.129,0.646
			v154.58H2587.098z"/>
	</g>
</g>
</svg>
