<?xml version="1.0" encoding="utf-8"?>
<!-- Generator: Adobe Illustrator 16.0.0, SVG Export Plug-In . SVG Version: 6.00 Build 0)  -->
<!DOCTYPE svg PUBLIC "-//W3C//DTD SVG 1.1//EN" "http://www.w3.org/Graphics/SVG/1.1/DTD/svg11.dtd">
<svg version="1.1" id="Layer_1" xmlns="http://www.w3.org/2000/svg" xmlns:xlink="http://www.w3.org/1999/xlink" x="0px" y="0px"
	 width="125px" height="80px" viewBox="0 0 125 80" enable-background="new 0 0 125 80" xml:space="preserve">
<g>
	<path fill="#FFFFFF" d="M27.146,15.421c1.207,0.559,1.383,1.737,1.736,2.796c0.235,0.648,0.412,1.354,0.412,2.031
		c0.029,1.089-0.029,2.178-0.207,3.237c-0.382,2.355-1.795,4.209-3.384,5.887c-0.354,0.382-1.001,0.559-1.531,0.706
		c-0.5,0.147-0.736-0.176-0.707-0.706c0.059-1.619,0.118-3.238,0.147-4.827c0-1.53-0.088-3.031-0.059-4.562
		c0-1.294,0.118-2.589,0.147-3.884c0.029-0.501-0.089-1.001-0.089-1.501c-0.029-2.796-0.147-5.593-0.029-8.389
		c0.059-1.707-0.147-3.355-0.324-5.033c0-0.147,0.235-0.471,0.383-0.471c1.295-0.147,2.561,0.677,3.12,1.913
		c0.324,0.735,0.854,1.413,1.059,2.178c0.53,1.914,1.03,3.797,0.618,5.857c-0.323,1.737-1.383,2.738-2.648,3.738
		C26.262,14.744,26.674,15.186,27.146,15.421z M24.614,13.92c0.235-0.147,0.471-0.265,0.735-0.412
		c1.767-0.942,2.472-2.531,2.384-4.444c-0.059-1.059-0.383-2.089-0.588-3.149c-0.266-1.5-0.942-2.796-2.09-3.825
		c-0.176-0.177-0.441-0.266-0.647-0.383c0,4.091,0,8.123,0,12.125C24.467,13.861,24.526,13.891,24.614,13.92z M24.879,28.636
		c0.824-0.824,1.795-1.501,2.267-2.62c0.354-0.824,0.913-1.619,1.088-2.502c0.413-1.825,0.235-3.649-0.382-5.416
		c-0.589-1.648-1.825-2.796-3.444-2.884c0,4.473,0,8.977,0,13.539C24.672,28.695,24.82,28.695,24.879,28.636z"/>
	<path fill="#FFFFFF" d="M35.593,1.912c0.294,1.648,0.559,3.326,0.794,4.974c0.206,1.648,0.324,3.326,0.588,4.974
		c0.294,1.826,0.707,3.621,1.03,5.445c0.354,2.06,0.707,4.091,1.03,6.122c0.206,1.383,0.354,2.796,0.53,4.179
		c0.059,0.53,0.147,1.06,0.235,1.619c0,0.147,0.029,0.354-0.03,0.442c-0.176,0.176-0.412,0.294-0.647,0.441
		c-0.117-0.206-0.324-0.383-0.353-0.588c-0.118-0.972-0.118-1.943-0.236-2.914c-0.176-1.766-0.412-3.531-0.677-5.298
		c-0.029-0.206-0.294-0.47-0.5-0.529c-1.56-0.413-3.12-0.589-4.739-0.147c-0.059,0.618-0.146,1.266-0.176,1.913
		c-0.059,1.501-0.118,3.002-0.147,4.474c-0.029,0.736,0,1.501-0.029,2.237c-0.03,0.471-0.206,0.854-0.854,0.677
		c0-0.825-0.029-1.619,0-2.443c0.059-2.001,0.118-4.033,0.265-6.034c0.118-1.5,0.354-3.002,0.53-4.533
		c0.207-1.943,0.412-3.914,0.647-5.857c0.236-1.795,0.53-3.591,0.795-5.386c0.089-0.736,0.089-1.441,0.206-2.178
		c0.088-0.736,0.235-1.471,0.442-2.178c0.059-0.235,0.383-0.383,0.677-0.647C35.21,1.117,35.505,1.5,35.593,1.912z M34.946,3.56
		c-0.088,0-0.207,0-0.294,0.029c-0.677,5.357-1.354,10.742-2.031,15.982c1.767,0.088,3.385,0.146,5.092,0.235
		C36.329,14.479,36.241,8.917,34.946,3.56z"/>
	<path fill="#FFFFFF" d="M46.808,3.295c-0.059-0.294-0.147-0.618-0.324-0.825c-0.294-0.294-0.707-0.735-1.001-0.677
		c-0.383,0.059-0.853,0.472-1,0.854c-0.412,1.03-0.735,2.09-0.942,3.149c-0.294,1.619-0.5,3.267-0.647,4.915
		c-0.088,1.236,0,2.501-0.029,3.738c0,1.089-0.118,2.148-0.118,3.238c0,1.03,0.088,2.089,0.147,3.149
		c0.118,1.53,0.207,3.031,0.353,4.562c0.118,1.148,0.383,2.237,1.207,3.149c0.647,0.707,1.502,0.354,1.796-0.235
		c0.647-1.354,0.913-2.826,1.089-4.297c0.059-0.442,0.236-0.618,0.647-0.589c0.442,0.029,0.588,0.323,0.5,0.676
		c-0.412,1.589-0.618,3.268-1.413,4.739c-0.47,0.883-1.324,1.413-2.089,1.236c-0.883-0.235-1.442-0.824-1.854-1.677
		c-0.912-1.913-0.912-3.944-1.06-5.975c-0.088-1.413-0.265-2.855-0.294-4.268c-0.03-1.354,0.118-2.678,0.176-4.032
		c0.029-1.03-0.059-2.089,0.029-3.149c0.147-1.884,0.236-3.767,0.588-5.592c0.266-1.354,0.854-2.62,1.354-3.915
		c0.235-0.646,1.236-0.912,2.208-0.735c0.795,0.147,1.089,0.765,1.265,1.325c0.265,0.794,0.354,1.647,0.413,2.472
		c0.029,0.324-0.088,0.794-0.707,0.589C47.014,4.502,46.926,3.913,46.808,3.295z"/>
	<path fill="#FFFFFF" d="M52.078,14.685c0.412,0.912,0.854,1.854,1.266,2.796c0.206,0.442,0.412,0.942,0.589,1.413
		c0.353,0.942,0.677,1.913,1,2.884c0.589,1.884,1.177,3.768,1.736,5.651c0.118,0.411,0.265,1.383,0.206,1.795
		c0,0.265-0.176,0.647-0.53,0.736c-0.324,0.059-0.5-0.324-0.559-0.56c-0.412-1.501-0.736-3.531-1.119-5.062
		c-0.176-0.647-0.441-1.266-0.618-1.943c-0.412-1.619-0.942-3.179-1.825-4.621c-0.353-0.618-0.529-1.384-0.794-2.061
		c-0.059,0-0.118,0-0.177,0.029c-0.059,1.06-0.117,2.119-0.147,3.179c-0.029,0.824-0.029,1.648-0.029,2.502
		c0.059,2.561,0.088,5.151,0.146,7.74c0,0.235,0,0.501-0.117,0.647c-0.147,0.148-0.442,0.324-0.647,0.294
		c-0.147-0.029-0.383-0.324-0.383-0.529c0-1.384,0.088-2.767,0.088-4.15c0.03-2.472,0-4.944,0.03-7.387
		c0-2.09,0.029-4.209,0.117-6.298c0.088-1.678,0.265-3.384,0.353-5.092c0.059-1.619,0.059-3.238,0.089-4.857
		c0-0.265-0.354-0.588,0.059-0.794c0.058-0.176,0.176-0.324,0.441-0.294c0.588,0.059,0.53,2.237,0.471,3.09
		c-0.118,2.355-0.354,4.68-0.501,7.035c-0.058,0.735-0.029,1.471-0.029,2.207c0.088,0.03,0.177,0.059,0.236,0.059
		c0.559-1.177,1.148-2.325,1.677-3.502c0.588-1.325,1.178-2.649,1.737-4.003c0.589-1.442,1.147-2.943,1.736-4.385
		c0.118-0.294,0.236-0.677,0.647-0.471c0.354,0.176,0.412,0.471,0.235,0.913c-0.559,1.354-1,2.767-1.618,4.121
		c-1.03,2.354-2.149,4.65-3.208,6.976c-0.235,0.47-0.441,0.912-0.618,1.412C51.96,14.303,52.019,14.509,52.078,14.685z"/>
	<path fill="#FFFFFF" d="M70.918,0.734c0.675,0,1.353,0,2.03-0.059c0.442-0.03,0.793,0.029,0.793,0.529
		c0.03,0.53-0.381,0.588-0.793,0.588c-0.708-0.029-1.383-0.058-2.03-0.087c0,2.972-0.03,5.856,0,8.711
		c0,1.648,0.088,3.296,0.146,4.944c0.061,1.354,0.148,2.737,0.179,4.091c0.058,2.561,0.027,5.151,0.058,7.741
		c0,0.735,0.088,1.501,0.061,2.266c0,0.236-0.267,0.56-0.503,0.618c-0.354,0.118-0.617-0.117-0.617-0.559
		c0.03-0.942,0.03-1.854,0.03-2.796c0.027-2.561,0.058-5.092,0.027-7.653c-0.027-2.178-0.206-4.385-0.294-6.563
		c-0.057-1.236-0.117-2.472-0.117-3.708c0-1.707,0.03-3.444,0.061-5.18c0-0.589-0.088-1.178-0.206-1.737
		c-0.03-0.118-0.297-0.235-0.442-0.235c-0.529-0.059-1.089-0.059-1.618-0.059c-0.796-0.029-0.826-0.176-0.796-0.559
		S69.562,0.734,70.918,0.734z"/>
	<path fill="#FFFFFF" d="M75.893,20.807c-0.148-1.913-0.179-3.826-0.179-5.739c0-1.795,0.091-3.59,0.206-5.357
		c0.091-1.147,0.324-2.295,0.56-3.414c0.206-1.03,0.412-2.089,0.766-3.061c0.324-0.825,0.826-1.56,1.326-2.267
		c0.293-0.412,1.736-0.383,2.179,0c0.853,0.766,1.409,1.678,1.47,2.885c0.058,0.971,0.354,1.942,0.382,2.942
		c0.061,1.589,0,3.208,0,4.827c0,0.972,0,1.943-0.027,2.944c-0.091,1.795-0.206,3.62-0.324,5.415
		c-0.117,1.619-0.205,3.238-0.411,4.857c-0.148,1.236-0.472,2.442-0.738,3.649c-0.176,0.795-0.647,1.442-1.471,1.589
		c-0.705,0.147-1.768-0.265-2.236-1.059c-0.206-0.383-0.354-0.825-0.441-1.266c-0.267-1.236-0.473-2.472-0.678-3.708
		c0.03-0.029,0.061-0.029,0.088-0.029C76.187,22.956,75.95,21.866,75.893,20.807z M77.6,26.34c0.118,0.677,0.263,1.413,0.587,2.031
		c0.206,0.354,0.738,0.648,1.177,0.765c0.179,0.029,0.591-0.441,0.766-0.765c0.206-0.441,0.297-0.971,0.442-1.442
		c0.796-2.826,0.647-5.768,0.971-8.653c0.206-1.708,0.088-3.443,0.118-5.18c0.03-1.648,0.118-3.296,0.061-4.944
		c-0.03-1.325-0.354-2.619-0.414-3.914c-0.058-0.854-0.294-1.56-0.941-2.12c-0.088-0.058-0.236-0.146-0.294-0.265
		c-0.293-0.529-0.59-0.383-0.971-0.029c-0.941,0.854-1.265,2.061-1.471,3.208c-0.473,2.561-0.826,5.151-1.032,7.77
		c-0.145,2.178-0.058,4.385-0.058,6.563C76.892,21.72,77.215,24.045,77.6,26.34z"/>
	<path fill="#FFFFFF" d="M27.292,36.058c0.677,0,1.354,0,2.031-0.059c0.441-0.03,0.794,0.029,0.794,0.529
		c0.03,0.53-0.383,0.589-0.794,0.589c-0.707-0.029-1.383-0.059-2.031-0.088c0,2.972-0.03,5.856,0,8.711
		c0,1.647,0.088,3.297,0.147,4.944c0.059,1.354,0.146,2.737,0.176,4.091c0.059,2.562,0.029,5.152,0.059,7.742
		c0,0.735,0.088,1.501,0.059,2.265c0,0.236-0.265,0.561-0.5,0.619c-0.354,0.118-0.618-0.118-0.618-0.56
		c0.029-0.941,0.029-1.855,0.029-2.796c0.03-2.561,0.059-5.093,0.03-7.653c-0.03-2.179-0.206-4.384-0.294-6.562
		c-0.059-1.236-0.118-2.473-0.118-3.709c0-1.706,0.03-3.442,0.059-5.179c0-0.589-0.087-1.178-0.206-1.737
		c-0.029-0.117-0.294-0.235-0.442-0.235c-0.529-0.059-1.088-0.059-1.619-0.059c-0.794-0.029-0.824-0.176-0.794-0.559
		S25.938,36.058,27.292,36.058z"/>
	<path fill="#FFFFFF" d="M32.915,54.128c0.059,1.678,0.118,3.385,0.147,5.062c0.029,1.061-0.029,2.148,0,3.238
		c0,0.764,0.118,1.501,0.118,2.267c0,0.205-0.089,0.5-0.236,0.618c-0.117,0.116-0.441,0.146-0.559,0.058
		c-0.176-0.118-0.294-0.381-0.294-0.589c0-1.295,0.088-2.588,0.088-3.884c-0.029-2.62-0.118-5.21-0.059-7.829
		c0.059-2.886,0.294-5.77,0.441-8.653c0.03-0.942-0.028-1.885-0.028-2.826c-0.03-1.5-0.03-3.472-0.03-4.973
		c0-0.176,0.206-0.442,0.354-0.471c0.146-0.029,0.411,0.147,0.5,0.294c0.118,0.176,0.118,0.441,0.118,0.676
		c-0.029,1.383-0.059,3.238-0.118,4.621c-0.059,2.236-0.118,4.473-0.206,6.739c-0.029,0.971-0.088,1.942-0.118,2.884
		c1.266,0,2.472,0,3.767,0c0-0.587,0-1.147,0-1.707c0-1.794,0-3.619-0.029-5.415c0-1.441-0.03-2.885-0.059-4.326
		c-0.03-1.06-0.117-2.12-0.117-3.179c0-0.294,0-0.707,0.5-0.736c0.471-0.03,0.559,0.294,0.559,0.647c0,1.001-0.03,2.03-0.03,3.031
		c0,1.354,0.03,2.678,0.03,4.03c-0.03,1.708-0.147,3.387-0.117,5.062c0.087,3.181,0.265,6.357,0.382,9.508
		c0.088,1.794,0.177,3.592,0.294,5.386c0,0.236,0.177,0.5,0.088,0.679c-0.117,0.323-0.354,0.734-0.589,0.764
		c-0.353,0.059-0.559-0.265-0.559-0.707c0.029-1.706,0.059-3.413,0-5.091c-0.059-1.942-0.235-3.856-0.354-5.799
		c0-0.088-0.029-0.206,0-0.324c0.118-0.676-0.294-0.854-0.824-0.823c-1.001,0.03-1.972,0.118-3.062,0.147
		C32.915,53.069,32.915,53.599,32.915,54.128z"/>
	<path fill="#FFFFFF" d="M41.922,45.121c0.735-0.087,1.53-0.087,2.266-0.263c0.442-0.09,0.618,0.088,0.677,0.353
		c0.029,0.295-0.059,0.676-0.529,0.706c-0.677,0.029-1.325,0.058-1.972,0.088c-0.382,0-0.53,0.148-0.53,0.529
		c-0.029,1.884-0.088,3.739-0.118,5.623c-0.058,2.942-0.087,5.885-0.146,8.829c0,0.854,0,1.737,0,2.619
		c0,0.353,0.059,0.529,0.559,0.529c0.677-0.028,1.413,0.147,2.089,0.324c0.207,0.059,0.324,0.413,0.471,0.618
		c-0.206,0.118-0.383,0.353-0.588,0.353c-0.559,0-1.089-0.087-1.648-0.146c-0.176-0.03-0.324-0.059-0.5-0.088
		c-1.443-0.148-1.413-0.148-1.354-1.648c0.059-1.326,0.059-2.648,0.118-3.974c0.029-1.325,0.117-2.678,0.117-4.003
		c0.03-2-0.029-3.974,0.03-5.974c0.029-1.942,0.176-3.885,0.206-5.828c0.03-2.091-0.029-4.179-0.029-6.269
		c0-0.324-0.147-0.735,0-0.913c0.207-0.265,0.619-0.5,0.971-0.529c1.06-0.059,2.12-0.03,3.149-0.059c0.383,0,0.707,0.059,0.736,0.5
		c0,0.442-0.265,0.647-0.707,0.647c-1.059,0-2.089,0-3.267,0C41.922,39.796,41.922,42.386,41.922,45.121z"/>
	<path fill="#FFFFFF" d="M59.877,38.619c-0.059-0.294-0.148-0.618-0.324-0.825c-0.294-0.294-0.707-0.735-1.001-0.677
		c-0.383,0.059-0.854,0.471-1.001,0.854C57.14,39,56.816,40.061,56.61,41.12c-0.294,1.618-0.5,3.266-0.647,4.915
		c-0.088,1.234,0,2.501-0.029,3.737c0,1.089-0.118,2.148-0.118,3.237c0,1.03,0.089,2.09,0.147,3.15
		c0.118,1.529,0.207,3.03,0.354,4.561c0.118,1.149,0.383,2.237,1.207,3.149c0.647,0.707,1.501,0.354,1.796-0.236
		c0.647-1.353,0.912-2.824,1.088-4.297c0.059-0.441,0.236-0.617,0.647-0.587c0.442,0.027,0.589,0.322,0.501,0.675
		c-0.412,1.591-0.618,3.269-1.413,4.739c-0.471,0.883-1.325,1.413-2.089,1.237c-0.883-0.236-1.443-0.824-1.854-1.678
		c-0.912-1.914-0.912-3.944-1.06-5.975c-0.088-1.413-0.265-2.855-0.294-4.269c-0.029-1.354,0.118-2.678,0.176-4.032
		c0.03-1.03-0.058-2.089,0.03-3.149c0.147-1.883,0.236-3.768,0.588-5.591c0.266-1.354,0.854-2.619,1.354-3.914
		c0.235-0.647,1.236-0.913,2.208-0.735c0.795,0.146,1.089,0.765,1.266,1.325c0.265,0.794,0.353,1.647,0.412,2.472
		c0.03,0.324-0.088,0.795-0.707,0.589C60.083,39.825,59.995,39.237,59.877,38.619z"/>
	<path fill="#FFFFFF" d="M67.326,37.235c0.294,1.648,0.557,3.326,0.793,4.972c0.206,1.649,0.324,3.327,0.59,4.976
		c0.294,1.824,0.705,3.62,1.029,5.444c0.354,2.06,0.708,4.092,1.031,6.123c0.206,1.383,0.352,2.796,0.53,4.179
		c0.058,0.53,0.145,1.06,0.232,1.619c0,0.147,0.03,0.353-0.027,0.442c-0.178,0.175-0.411,0.293-0.647,0.439
		c-0.118-0.205-0.323-0.383-0.354-0.588c-0.118-0.972-0.118-1.942-0.236-2.914c-0.176-1.766-0.411-3.531-0.678-5.299
		c-0.027-0.205-0.294-0.469-0.499-0.529c-1.559-0.411-3.12-0.587-4.739-0.146c-0.058,0.618-0.145,1.266-0.175,1.914
		c-0.061,1.5-0.118,3.001-0.148,4.472c-0.03,0.737,0,1.501-0.03,2.238c-0.027,0.47-0.206,0.853-0.853,0.676
		c0-0.823-0.029-1.619,0-2.441c0.059-2.002,0.118-4.034,0.266-6.034c0.118-1.501,0.354-3.002,0.529-4.533
		c0.206-1.942,0.411-3.914,0.647-5.856c0.236-1.796,0.529-3.59,0.796-5.386c0.088-0.736,0.088-1.441,0.206-2.178
		c0.088-0.736,0.232-1.471,0.441-2.178c0.058-0.235,0.381-0.383,0.675-0.647C66.942,36.441,67.235,36.823,67.326,37.235z
		 M66.679,38.883c-0.091,0-0.209,0-0.297,0.03c-0.675,5.355-1.353,10.741-2.03,15.98c1.768,0.09,3.387,0.147,5.093,0.234
		C68.062,49.803,67.974,44.239,66.679,38.883z"/>
	<path fill="#FFFFFF" d="M77.627,64.842c-0.118,0.735-2.823,0.647-3.649,0.441c-0.382-0.088-0.469-0.323-0.469-0.678
		c0.026-0.705,0.057-1.441,0.057-2.148c0.061-3.413,0.118-6.828,0.206-10.213c0.03-1.912,0.148-3.826,0.148-5.738
		c0-2.12-0.088-4.238-0.148-6.357c-0.03-1.119-0.088-2.237-0.058-3.355c0-0.265,0.027-0.706,0.47-0.794
		c0.441-0.059,0.441,0.5,0.441,0.766c0.061,2.737,0.088,5.473,0.118,8.21c0,2.15,0.061,4.299,0,6.447
		c-0.03,2.059-0.206,4.091-0.206,6.149c0,1.972,0.118,3.944,0.148,5.945c0.027,0.207,0.118,0.413,0.058,0.736
		C75.774,64.282,77.832,63.724,77.627,64.842z"/>
	<path fill="#FFFFFF" d="M80.837,45.121c0.735-0.087,1.531-0.087,2.267-0.263c0.442-0.09,0.617,0.088,0.675,0.353
		c0.03,0.295-0.058,0.676-0.529,0.706c-0.675,0.029-1.322,0.058-1.97,0.088c-0.385,0-0.529,0.148-0.529,0.529
		c-0.03,1.884-0.091,3.739-0.118,5.623c-0.061,2.942-0.088,5.885-0.148,8.829c0,0.854,0,1.737,0,2.619
		c0,0.353,0.061,0.529,0.56,0.529c0.678-0.028,1.413,0.147,2.088,0.324c0.209,0.059,0.324,0.413,0.472,0.618
		c-0.205,0.118-0.381,0.353-0.587,0.353c-0.56,0-1.089-0.087-1.648-0.146c-0.176-0.03-0.324-0.059-0.5-0.088
		c-1.443-0.148-1.413-0.148-1.355-1.648c0.061-1.326,0.061-2.648,0.118-3.974c0.03-1.325,0.118-2.678,0.118-4.003
		c0.03-2-0.03-3.974,0.03-5.974c0.027-1.942,0.176-3.885,0.206-5.828c0.026-2.091-0.03-4.179-0.03-6.269
		c0-0.324-0.148-0.735,0-0.913c0.205-0.265,0.617-0.5,0.971-0.529c1.06-0.059,2.118-0.03,3.15-0.059c0.381,0,0.705,0.059,0.735,0.5
		c0,0.442-0.267,0.647-0.708,0.647c-1.06,0-2.088,0-3.266,0C80.837,39.796,80.837,42.386,80.837,45.121z"/>
	<path fill="#FFFFFF" d="M87.488,41.503c0.03,1.177,0.03,2.323,0.061,3.472c0,0.589,0.058,1.179,0.058,1.796
		c0,2.208,0,4.445,0.03,6.682c0.03,1.589,0.176,3.207,0.236,4.826c0.057,1.912,0.087,3.855,0.175,5.769
		c0.03,0.501-0.235,0.707-0.617,0.707c-0.179,0-0.529-0.295-0.502-0.411c0.354-1.825,0-3.651-0.027-5.447
		c0-1.206-0.088-6.327-0.118-7.181c-0.061-1.884-0.03-3.768-0.03-5.68c0-0.942,0.061-1.914,0.03-2.856
		c0-0.705-0.148-1.411-0.179-2.147c-0.058-1.118-0.058-2.236-0.088-3.354c-0.027-0.177,0-0.353-0.057-0.5
		c-0.118-0.412-0.118-0.765,0.354-0.883c0.411-0.089,0.823-0.089,1.029,0.471c0.381,1.059,0.913,2.119,1.207,3.208
		c0.56,2,0.998,4.031,1.471,6.063c0.678,2.825,1.383,5.649,2.03,8.476c0.384,1.766,0.647,3.562,0.972,5.327
		c0.03,0.234,0.147,0.471,0.384,0.677c0-1.324,0-2.647,0.027-3.974c0-0.676,0.118-1.383,0.118-2.089c0-0.795-0.118-1.59-0.118-2.383
		c-0.027-1.737-0.027-3.443-0.027-5.181c-0.03-2.267,0-4.533,0.027-6.769c0-1.177,0.03-2.326,0.118-3.502
		c0.03-0.206,0.323-0.413,0.472-0.618c0.148,0.206,0.382,0.412,0.382,0.588c0,2.208-0.118,4.415-0.118,6.622
		c-0.027,2.267-0.027,4.533,0,6.8c0,1.47,0.118,2.971,0.148,4.472c0,1.443,0,2.856,0,4.297c0,1.914,0,3.828,0,5.74
		c0,0.501-0.148,0.854-0.678,0.912c-0.47,0.029-0.941-0.47-0.999-0.971c-0.179-1.619-0.324-3.236-0.59-4.826
		c-0.324-1.884-0.705-3.739-1.117-5.593c-0.117-0.618-0.384-1.235-0.532-1.883c-0.176-0.735-0.293-1.531-0.469-2.297
		c-0.412-1.913-0.766-3.825-1.238-5.739c-0.323-1.411-0.765-2.795-1.146-4.149c-0.118-0.382-0.323-0.735-0.472-1.089
		c-0.058,0-0.146,0-0.206,0C87.488,39.766,87.488,40.65,87.488,41.503z"/>
	<path fill="#FFFFFF" d="M104.324,48.213c-0.087,1.708-0.263,3.414-0.469,5.121c-0.205,1.707-0.441,3.413-0.796,5.093
		c-0.175,0.854-0.705,1.646-0.884,2.501c-0.175,0.824-0.529,1.472-1.059,2.059c-0.705,0.766-1.413,1.501-2.148,2.209
		c-0.441,0.442-0.705,0.234-1.119-0.235c-0.5-0.561-0.294-1.06-0.264-1.649c0.088-1.882,0.176-3.768,0.206-5.649
		c0.058-2.297,0.088-4.621,0.088-6.947c0.03-2.943,0-5.916,0.03-8.888c0.029-1.058,0.145-2.119,0.175-3.178
		c0.03-0.56-0.058-1.119-0.088-1.648c-0.03-0.942,0.354-1.177,1.208-0.883c1.912,0.706,3.443,1.942,4.121,3.855
		c0.529,1.56,1.086,3.267,0.881,5.062C104.237,46.064,104.385,47.125,104.324,48.213z M98.645,64.019
		c0.148,0,0.176-0.148,0.236-0.207c1.737-1.148,2.617-2.913,3.178-4.798c0.472-1.589,0.647-3.295,0.943-4.974
		c0.146-0.883,0.233-1.796,0.264-2.679c0.061-1.795,0-3.619,0.088-5.444c0.118-1.854-0.206-3.62-0.766-5.385
		c-0.557-1.796-1.852-2.796-3.589-3.326C98.881,46.153,98.763,55.07,98.645,64.019z"/>
	<path fill="#FFFFFF" d="M107.829,45.121c0.735-0.087,1.531-0.087,2.266-0.263c0.442-0.09,0.618,0.088,0.679,0.353
		c0.026,0.295-0.061,0.676-0.53,0.706c-0.678,0.029-1.325,0.058-1.973,0.088c-0.381,0-0.529,0.148-0.529,0.529
		c-0.03,1.884-0.088,3.739-0.118,5.623c-0.058,2.942-0.088,5.885-0.148,8.829c0,0.854,0,1.737,0,2.619
		c0,0.353,0.061,0.529,0.56,0.529c0.678-0.028,1.413,0.147,2.091,0.324c0.206,0.059,0.324,0.413,0.47,0.618
		c-0.206,0.118-0.382,0.353-0.587,0.353c-0.561,0-1.09-0.087-1.649-0.146c-0.176-0.03-0.324-0.059-0.499-0.088
		c-1.443-0.148-1.413-0.148-1.356-1.648c0.061-1.326,0.061-2.648,0.118-3.974c0.03-1.325,0.118-2.678,0.118-4.003
		c0.03-2-0.03-3.974,0.03-5.974c0.03-1.942,0.176-3.885,0.206-5.828c0.03-2.091-0.03-4.179-0.03-6.269c0-0.324-0.146-0.735,0-0.913
		c0.206-0.265,0.62-0.5,0.971-0.529c1.06-0.059,2.122-0.03,3.15-0.059c0.382,0,0.705,0.059,0.735,0.5
		c0,0.442-0.264,0.647-0.705,0.647c-1.059,0-2.091,0-3.268,0C107.829,39.796,107.829,42.386,107.829,45.121z"/>
	<path fill="#FFFFFF" d="M116.247,48.654c0.56,1.914,1.146,3.826,1.649,5.738c0.499,1.855,0.94,3.739,1.413,5.593
		c0.351,1.413,0.705,2.796,1.059,4.179c0.03,0.207,0.03,0.384,0.088,0.59c0.058,0.323,0.058,0.617-0.381,0.676
		c-0.415,0.029-0.621-0.146-0.679-0.588c-0.147-1.03-0.266-2.061-0.529-3.061c-0.472-1.914-1.031-3.797-1.562-5.682
		c-0.56-1.942-1.089-3.914-1.646-5.855c-0.324-1.089-0.708-2.121-1.208-3.209c-0.03,0.147-0.087,0.295-0.087,0.44
		c0,1.531-0.03,3.093-0.03,4.651c0,1.325,0,2.648,0.03,3.973c0,0.59,0.117,1.177,0.117,1.768c0,0.91-0.117,1.853-0.091,2.766
		c0.03,1.354,0.148,2.678,0.267,4.003c0.03,0.383,0.088,0.735-0.411,0.735c-0.473,0-0.678-0.206-0.678-0.705
		c0.03-1.59-0.03-3.181-0.088-4.738c-0.03-1.413-0.088-2.796-0.088-4.209c0-1.796,0.088-3.562,0.088-5.357
		c0-1.735-0.118-3.473-0.088-5.21c0-1.059,0.233-2.118,0.263-3.179c0.088-1.794,0.061-3.561,0.088-5.326
		c0.03-0.206,0.179-0.442,0.267-0.647c0.206,0.088,0.411,0.176,0.587,0.294c0.179,0.088,0.324,0.176,0.442,0.294
		c0.647,0.501,1.268,1.001,1.915,1.501c0.763,0.56,0.881,1.443,1.086,2.267c0.561,2.088-0.411,3.708-1.733,5.179
		c-0.03,0.06-0.118,0.117-0.209,0.178c-0.206,0.117-0.411,0.234-0.617,0.353C115.748,46.946,116.011,47.8,116.247,48.654z
		 M117.161,41.973c0.205-2.471-1.032-3.648-2.473-4.414c-0.118,2.62-0.206,5.239-0.323,7.857
		C115.569,45.211,117.043,43.269,117.161,41.973z"/>
	<path fill="#FFFFFF" d="M57.748,74.667c6.344,0.066,12.586,0.033,18.835,0.066c5.586,0.033,11.266,0.136,16.852,0.17
		c2.46,0,5.014-0.101,7.477-0.137c6.059-0.033,12.116-0.1,18.174-0.066c0.754,0,1.985,0.372,1.985,0.578
		c0,0.407-0.754,0.712-2.363,0.678c-6.343-0.068-12.778-0.102-19.118-0.102c-7.099,0-14.197,0.033-21.206,0.033
		c-5.107,0-10.222,0-15.332-0.033c-5.775-0.068-11.551-0.237-17.321-0.271c-5.586-0.035-11.172,0.066-16.758,0.135
		c-1.323,0-2.555-0.102-2.555-0.68c0-0.576,1.329-0.509,2.369-0.542c2.176-0.067,4.448-0.136,6.623-0.204v0.035
		C42.887,74.463,50.366,74.565,57.748,74.667z"/>
	<path fill="#FFFFFF" d="M32.508,78.465c-0.736-0.03-1.501,0-2.237-0.03c-1.472-0.03-2.972-0.088-4.474-0.148
		c-0.647-0.029-1.295-0.117-1.913-0.176c0,0-0.361,0-1.059,0c-5.239-0.678-10.625-1.354-15.981-2.03
		c-0.03-0.088-0.03-0.206-0.03-0.295c5.357-1.295,10.919-1.383,16.247-2.768c0.68-0.132,1.295-0.118,1.501-0.146
		c1.766-0.266,3.532-0.502,5.297-0.678c0.972-0.118,1.943-0.118,2.914-0.235c0.206-0.029,0.383-0.236,0.589-0.353
		c-0.147-0.236-0.265-0.471-0.441-0.647c-0.088-0.06-0.294-0.029-0.441-0.029c-0.559,0.088-1.089,0.176-1.619,0.234
		c-1.383,0.178-2.796,0.324-4.179,0.53c-2.031,0.323-4.062,0.676-6.123,1.03c-1.824,0.323-3.62,0.735-5.445,1.03
		c-1.648,0.265-3.326,0.383-4.974,0.588c-1.648,0.236-3.326,0.5-4.974,0.795c-0.413,0.089-0.794,0.383-1.236,0.618
		c0.265,0.294,0.412,0.617,0.647,0.677c0.707,0.207,1.442,0.353,2.178,0.441c0.736,0.117,1.442,0.117,2.178,0.206
		c1.795,0.265,3.591,0.559,5.386,0.794c1.942,0.236,3.914,0.442,5.856,0.647c1.531,0.178,3.032,0.412,4.533,0.53
		c2.001,0.148,4.032,0.205,6.034,0.266c0.824,0.029,1.618,0,2.443,0C33.362,78.67,32.979,78.493,32.508,78.465z"/>
</g>
</svg>
