<?xml version="1.0" encoding="utf-8"?>
<!-- Generator: Adobe Illustrator 16.0.0, SVG Export Plug-In . SVG Version: 6.00 Build 0)  -->
<!DOCTYPE svg PUBLIC "-//W3C//DTD SVG 1.1//EN" "http://www.w3.org/Graphics/SVG/1.1/DTD/svg11.dtd">
<svg version="1.1" xmlns="http://www.w3.org/2000/svg" xmlns:xlink="http://www.w3.org/1999/xlink" x="0px" y="0px" width="90px"
	 height="90px" viewBox="0 0 90 90" enable-background="new 0 0 90 90" xml:space="preserve">
<g id="background_color" display="none">
	<rect x="-8.504" y="-8.504" display="inline" fill="#3C2415" width="107.008" height="107.008"/>
</g>
<g id="ram">
	<g>
		<g>
			<polyline fill="none" stroke="#FFFFFF" stroke-linecap="round" stroke-miterlimit="10" points="87.436,86.935 87.436,87.435 
				86.936,87.435 			"/>
			
				<line fill="none" stroke="#FFFFFF" stroke-linecap="round" stroke-miterlimit="10" stroke-dasharray="1.0105,3.0315" x1="83.904" y1="87.435" x2="4.58" y2="87.435"/>
			<polyline fill="none" stroke="#FFFFFF" stroke-linecap="round" stroke-miterlimit="10" points="3.064,87.435 2.564,87.435 
				2.564,86.935 			"/>
			
				<line fill="none" stroke="#FFFFFF" stroke-linecap="round" stroke-miterlimit="10" stroke-dasharray="1.0105,3.0315" x1="2.564" y1="83.903" x2="2.564" y2="4.58"/>
			<polyline fill="none" stroke="#FFFFFF" stroke-linecap="round" stroke-miterlimit="10" points="2.564,3.064 2.564,2.564 
				3.064,2.564 			"/>
			
				<line fill="none" stroke="#FFFFFF" stroke-linecap="round" stroke-miterlimit="10" stroke-dasharray="1.0105,3.0315" x1="6.096" y1="2.564" x2="85.42" y2="2.564"/>
			<polyline fill="none" stroke="#FFFFFF" stroke-linecap="round" stroke-miterlimit="10" points="86.936,2.564 87.436,2.564 
				87.436,3.064 			"/>
			
				<line fill="none" stroke="#FFFFFF" stroke-linecap="round" stroke-miterlimit="10" stroke-dasharray="1.0105,3.0315" x1="87.436" y1="6.096" x2="87.436" y2="85.419"/>
		</g>
	</g>
</g>
<g id="day1" display="none">
	<g display="inline">
		<g>
			<path fill-rule="evenodd" clip-rule="evenodd" fill="none" stroke="#FFFFFF" stroke-width="0.4343" stroke-miterlimit="10" d="
				M26.91,51.943c-0.599-1.05-1.204-2.09-0.96-3.369c0.134-0.703,0.649-0.894,1.246-0.497c0.37,0.246,0.576,0.6,0.669,1.026
				c0.02,0.095,0.033,0.19,0.043,0.255c0.3-0.149,0.579-0.325,0.882-0.432c0.364-0.129,0.729-0.082,1.051,0.16
				c0.298,0.223,0.381,0.51,0.16,0.801c-0.221,0.291-0.474,0.565-0.752,0.802C28.58,51.26,27.797,51.635,26.91,51.943z"/>
			<path fill-rule="evenodd" clip-rule="evenodd" fill="none" stroke="#FFFFFF" stroke-width="0.4343" stroke-miterlimit="10" d="
				M61.917,50.144c0.09-0.325,0.121-0.662,0.273-0.928c0.146-0.252,0.389-0.487,0.645-0.626c0.459-0.247,0.818-0.037,0.925,0.481
				c0.146,0.713,0.041,1.417-0.12,2.108c-0.11,0.476-0.299,0.932-0.461,1.424c-1.078-0.175-2.084-0.493-2.912-1.232
				c-0.131-0.117-0.238-0.272-0.322-0.43c-0.298-0.55-0.104-0.983,0.508-1.135C61.006,49.669,61.5,49.817,61.917,50.144z"/>
			<g>
				<g>
					<g>
						<path fill="#FFFFFF" d="M18.979,59.246c-0.179-0.73-4.396-17.94-1.532-21.048c0.954-0.991,8.705,0.83,11.996,1.659
							c0.53,0.133,13.03,3.297,13.679,4.99c0.824,3.754-11.317,16.941-11.833,17.501l-0.128,0.137L19.024,59.43L18.979,59.246z
							 M42.523,45.026c-0.272-0.661-5.654-2.653-13.236-4.56c-6.804-1.713-10.947-2.222-11.383-1.834
							c-2.157,2.337,0.413,15.256,1.641,20.278l11.411,2.874C34.498,57.932,43.129,47.801,42.523,45.026z"/>
					</g>
					<g>
						<path fill="#FFFFFF" d="M17.68,54.521l0.471-0.417c-7.932-9.007-8.103-11.769-7.496-12.613
							c0.928-1.294,4.788-0.053,6.197,0.536l0.244-0.58c-0.568-0.236-5.568-2.251-6.95-0.32
							C8.857,42.919,11.322,47.301,17.68,54.521z"/>
					</g>
				</g>
				<g>
					<g>
						<path fill="#FFFFFF" d="M70.974,59.43L58.84,62.485l-0.127-0.137c-0.519-0.561-12.658-13.747-11.835-17.501
							c0.649-1.693,13.148-4.856,13.681-4.99c3.29-0.83,11.041-2.65,11.994-1.659c2.865,3.108-1.353,20.317-1.531,21.048
							L70.974,59.43z M59.047,61.784l11.41-2.874c1.228-5.022,3.798-17.941,1.64-20.278c-0.436-0.388-4.579,0.121-11.387,1.834
							c-7.578,1.907-12.958,3.899-13.233,4.56C46.872,47.801,55.502,57.932,59.047,61.784z"/>
					</g>
					<g>
						<path fill="#FFFFFF" d="M72.319,54.521l-0.47-0.417c7.93-9.007,8.104-11.769,7.495-12.613
							c-0.928-1.294-4.789-0.053-6.195,0.536l-0.244-0.58c0.567-0.236,5.569-2.251,6.949-0.32
							C81.143,42.919,78.679,47.301,72.319,54.521z"/>
					</g>
				</g>
			</g>
		</g>
		<path fill-rule="evenodd" clip-rule="evenodd" fill="none" stroke="#FFFFFF" stroke-width="0.43" stroke-miterlimit="10" d="
			M44.9,40.592c-3.335-2.407-6.674-4.775-7.722-9.082c-0.575-2.367,0.751-3.682,3.16-3.295c1.493,0.242,2.628,1.048,3.518,2.236
			c0.195,0.265,0.37,0.543,0.494,0.73c0.716-0.886,1.334-1.822,2.124-2.582c0.946-0.913,2.142-1.279,3.483-0.985
			c1.236,0.271,1.897,1.043,1.624,2.256s-0.672,2.421-1.201,3.545C49.11,36.121,47.213,38.387,44.9,40.592z"/>
	</g>
</g>
<g id="day2">
	<g>
		<g>
			<line fill="#FFFFFF" stroke="#FFFFFF" stroke-width="0.43" stroke-miterlimit="10" x1="45" y1="11.14" x2="45" y2="45"/>
			
				<line fill="#FFFFFF" stroke="#FFFFFF" stroke-width="0.43" stroke-miterlimit="10" x1="45" y1="22.763" x2="37.135" y2="14.901"/>
			
				<line fill="#FFFFFF" stroke="#FFFFFF" stroke-width="0.43" stroke-miterlimit="10" x1="45" y1="22.763" x2="52.865" y2="14.901"/>
			<line fill="#FFFFFF" stroke="#FFFFFF" stroke-width="0.43" stroke-miterlimit="10" x1="68.936" y1="21.057" x2="45" y2="45"/>
			
				<line fill="#FFFFFF" stroke="#FFFFFF" stroke-width="0.43" stroke-miterlimit="10" x1="60.721" y1="29.28" x2="60.721" y2="18.157"/>
			
				<line fill="#FFFFFF" stroke="#FFFFFF" stroke-width="0.43" stroke-miterlimit="10" x1="60.721" y1="29.28" x2="71.844" y2="29.28"/>
			<line fill="#FFFFFF" stroke="#FFFFFF" stroke-width="0.43" stroke-miterlimit="10" x1="78.863" y1="45" x2="45" y2="45"/>
			<line fill="#FFFFFF" stroke="#FFFFFF" stroke-width="0.43" stroke-miterlimit="10" x1="67.234" y1="45" x2="75.1" y2="37.132"/>
			<line fill="#FFFFFF" stroke="#FFFFFF" stroke-width="0.43" stroke-miterlimit="10" x1="67.234" y1="45" x2="75.1" y2="52.861"/>
			<line fill="#FFFFFF" stroke="#FFFFFF" stroke-width="0.43" stroke-miterlimit="10" x1="68.936" y1="68.939" x2="45" y2="45"/>
			
				<line fill="#FFFFFF" stroke="#FFFFFF" stroke-width="0.43" stroke-miterlimit="10" x1="60.721" y1="60.72" x2="71.84" y2="60.72"/>
			
				<line fill="#FFFFFF" stroke="#FFFFFF" stroke-width="0.43" stroke-miterlimit="10" x1="60.721" y1="60.72" x2="60.721" y2="71.843"/>
			<line fill="#FFFFFF" stroke="#FFFFFF" stroke-width="0.43" stroke-miterlimit="10" x1="45" y1="78.86" x2="45" y2="45"/>
			
				<line fill="#FFFFFF" stroke="#FFFFFF" stroke-width="0.43" stroke-miterlimit="10" x1="45" y1="67.227" x2="52.865" y2="75.096"/>
			
				<line fill="#FFFFFF" stroke="#FFFFFF" stroke-width="0.43" stroke-miterlimit="10" x1="45" y1="67.227" x2="37.135" y2="75.096"/>
			<line fill="#FFFFFF" stroke="#FFFFFF" stroke-width="0.43" stroke-miterlimit="10" x1="21.054" y1="68.939" x2="45" y2="45"/>
			
				<line fill="#FFFFFF" stroke="#FFFFFF" stroke-width="0.43" stroke-miterlimit="10" x1="29.28" y1="60.72" x2="29.28" y2="71.843"/>
			
				<line fill="#FFFFFF" stroke="#FFFFFF" stroke-width="0.43" stroke-miterlimit="10" x1="29.28" y1="60.72" x2="18.154" y2="60.72"/>
			<line fill="#FFFFFF" stroke="#FFFFFF" stroke-width="0.43" stroke-miterlimit="10" x1="11.136" y1="45" x2="45" y2="45"/>
			
				<line fill="#FFFFFF" stroke="#FFFFFF" stroke-width="0.43" stroke-miterlimit="10" x1="22.767" y1="45" x2="14.898" y2="52.861"/>
			
				<line fill="#FFFFFF" stroke="#FFFFFF" stroke-width="0.43" stroke-miterlimit="10" x1="22.767" y1="45" x2="14.898" y2="37.132"/>
			<line fill="#FFFFFF" stroke="#FFFFFF" stroke-width="0.43" stroke-miterlimit="10" x1="21.054" y1="21.057" x2="45" y2="45"/>
			
				<line fill="#FFFFFF" stroke="#FFFFFF" stroke-width="0.43" stroke-miterlimit="10" x1="29.28" y1="29.28" x2="18.154" y2="29.28"/>
			
				<line fill="#FFFFFF" stroke="#FFFFFF" stroke-width="0.43" stroke-miterlimit="10" x1="29.28" y1="29.28" x2="29.28" y2="18.151"/>
		</g>
		<g>
			<g>
				<rect x="63.584" y="47.64" fill="#FFFFFF" width="0.262" height="5.222"/>
			</g>
			<g>
				
					<rect x="62.251" y="48.692" transform="matrix(0.7065 0.7077 -0.7077 0.7065 53.0719 -30.3329)" fill="#FFFFFF" width="1.717" height="0.264"/>
			</g>
			<g>
				
					<rect x="64.19" y="47.966" transform="matrix(0.7071 0.7071 -0.7071 0.7071 53.3632 -31.1817)" fill="#FFFFFF" width="0.262" height="1.717"/>
			</g>
			<g>
				
					<rect x="65.431" y="48.404" transform="matrix(0.7071 0.7071 -0.7071 0.7071 55.277 -31.4173)" fill="#FFFFFF" width="0.262" height="5.225"/>
			</g>
			<g>
				<rect x="66.008" y="48.721" fill="#FFFFFF" width="0.268" height="1.716"/>
			</g>
			<g>
				<rect x="66.145" y="50.301" fill="#FFFFFF" width="1.719" height="0.271"/>
			</g>
			<g>
				<rect x="63.715" y="52.733" fill="#FFFFFF" width="5.221" height="0.263"/>
			</g>
			<g>
				<polygon fill="#FFFFFF" points="67.24,52.957 67.051,52.771 68.268,51.557 68.459,51.742 				"/>
			</g>
			<g>
				<polygon fill="#FFFFFF" points="68.268,54.176 67.051,52.957 67.24,52.771 68.459,53.984 				"/>
			</g>
			<g>
				<polygon fill="#FFFFFF" points="67.316,56.652 63.623,52.957 63.809,52.771 67.502,56.473 				"/>
			</g>
			<g>
				<rect x="66.145" y="55.158" fill="#FFFFFF" width="1.719" height="0.262"/>
			</g>
			<g>
				<rect x="66.008" y="55.293" fill="#FFFFFF" width="0.268" height="1.715"/>
			</g>
			<g>
				<rect x="63.584" y="52.861" fill="#FFFFFF" width="0.262" height="5.231"/>
			</g>
			<g>
				<polygon fill="#FFFFFF" points="64.834,57.607 63.623,56.389 63.809,56.203 65.023,57.416 				"/>
			</g>
			<g>
				<polygon fill="#FFFFFF" points="62.596,57.607 62.41,57.416 63.623,56.203 63.809,56.389 				"/>
			</g>
			<g>
				<polygon fill="#FFFFFF" points="60.113,56.652 59.922,56.467 63.623,52.771 63.809,52.957 				"/>
			</g>
			<g>
				<rect x="61.156" y="55.293" fill="#FFFFFF" width="0.266" height="1.715"/>
			</g>
			<g>
				<rect x="59.568" y="55.158" fill="#FFFFFF" width="1.719" height="0.262"/>
			</g>
			<g>
				<rect x="58.488" y="52.733" fill="#FFFFFF" width="5.227" height="0.263"/>
			</g>
			<g>
				<polygon fill="#FFFFFF" points="59.158,54.176 58.979,53.984 60.188,52.771 60.377,52.957 				"/>
			</g>
			<g>
				<polygon fill="#FFFFFF" points="60.188,52.957 58.979,51.742 59.158,51.557 60.377,52.771 				"/>
			</g>
			<g>
				<polygon fill="#FFFFFF" points="63.623,52.957 59.922,49.263 60.113,49.076 63.809,52.771 				"/>
			</g>
			<g>
				<rect x="59.568" y="50.301" fill="#FFFFFF" width="1.719" height="0.271"/>
			</g>
			<g>
				<rect x="61.156" y="48.721" fill="#FFFFFF" width="0.266" height="1.716"/>
			</g>
		</g>
		<g>
			<g>
				<polygon fill="#FFFFFF" points="63.885,37.235 63.699,37.42 60.008,33.726 60.193,33.534 				"/>
			</g>
			<g>
				<polygon fill="#FFFFFF" points="61.365,35.031 59.645,35.031 59.652,34.771 61.365,34.771 				"/>
			</g>
			<g>
				<rect x="61.236" y="33.181" fill="#FFFFFF" width="0.266" height="1.72"/>
			</g>
			<g>
				<rect x="63.66" y="32.096" fill="#FFFFFF" width="0.264" height="5.228"/>
			</g>
			<g>
				
					<rect x="63.055" y="32.431" transform="matrix(0.7062 -0.708 0.708 0.7062 -5.0037 54.5192)" fill="#FFFFFF" width="0.263" height="1.715"/>
			</g>
			<g>
				<polygon fill="#FFFFFF" points="65.104,32.774 63.885,33.989 63.699,33.803 64.912,32.584 				"/>
			</g>
			<g>
				<polygon fill="#FFFFFF" points="67.584,33.726 63.885,37.42 63.699,37.235 67.4,33.534 				"/>
			</g>
			<g>
				<rect x="66.09" y="33.181" fill="#FFFFFF" width="0.262" height="1.72"/>
			</g>
			<g>
				<rect x="66.221" y="34.771" fill="#FFFFFF" width="1.719" height="0.259"/>
			</g>
			<g>
				<rect x="63.793" y="37.196" fill="#FFFFFF" width="5.23" height="0.26"/>
			</g>
			<g>
				<polygon fill="#FFFFFF" points="68.535,36.205 67.32,37.42 67.135,37.235 68.344,36.016 				"/>
			</g>
			<g>
				<polygon fill="#FFFFFF" points="68.535,38.447 68.344,38.639 67.135,37.42 67.32,37.235 				"/>
			</g>
			<g>
				
					<rect x="65.51" y="36.559" transform="matrix(0.695 -0.719 0.719 0.695 -8.1461 59.1463)" fill="#FFFFFF" width="0.264" height="5.233"/>
			</g>
			<g>
				<rect x="66.221" y="39.625" fill="#FFFFFF" width="1.719" height="0.26"/>
			</g>
			<g>
				<rect x="66.09" y="39.755" fill="#FFFFFF" width="0.262" height="1.716"/>
			</g>
			<g>
				<polygon fill="#FFFFFF" points="63.924,42.56 63.66,42.553 63.66,37.324 63.924,37.324 				"/>
			</g>
			<g>
				<polygon fill="#FFFFFF" points="65.104,41.882 64.912,42.072 63.699,40.853 63.885,40.667 				"/>
			</g>
			<g>
				
					<rect x="62.327" y="41.235" transform="matrix(0.7048 -0.7094 0.7094 0.7048 -10.6945 57.0336)" fill="#FFFFFF" width="1.718" height="0.265"/>
			</g>
			<g>
				
					<rect x="59.333" y="39.042" transform="matrix(0.7064 -0.7078 0.7078 0.7064 -9.5411 55.3475)" fill="#FFFFFF" width="5.226" height="0.266"/>
			</g>
			<g>
				<rect x="61.236" y="39.755" fill="#FFFFFF" width="0.266" height="1.716"/>
			</g>
			<g>
				<polygon fill="#FFFFFF" points="61.365,39.884 59.652,39.884 59.645,39.625 61.365,39.625 				"/>
			</g>
			<g>
				<rect x="58.568" y="37.196" fill="#FFFFFF" width="5.225" height="0.26"/>
			</g>
			<g>
				<polygon fill="#FFFFFF" points="59.24,38.639 59.055,38.447 60.268,37.235 60.457,37.42 				"/>
			</g>
			<g>
				
					<rect x="59.623" y="35.861" transform="matrix(0.7144 -0.6997 0.6997 0.7144 -8.6288 52.2973)" fill="#FFFFFF" width="0.265" height="1.717"/>
			</g>
		</g>
		<g>
			<g>
				<rect x="47.637" y="26.15" fill="#FFFFFF" width="5.229" height="0.267"/>
			</g>
			<g>
				<polygon fill="#FFFFFF" points="49.523,26.375 48.307,27.59 48.127,27.407 49.336,26.188 				"/>
			</g>
			<g>
				<polygon fill="#FFFFFF" points="49.523,26.192 49.336,26.375 48.127,25.162 48.307,24.977 				"/>
			</g>
			<g>
				
					<rect x="50.884" y="21.82" transform="matrix(0.7006 -0.7136 0.7136 0.7006 -2.1597 43.7204)" fill="#FFFFFF" width="0.262" height="5.228"/>
			</g>
			<g>
				<rect x="48.717" y="23.726" fill="#FFFFFF" width="1.717" height="0.263"/>
			</g>
			<g>
				<rect x="50.305" y="22.141" fill="#FFFFFF" width="0.264" height="1.716"/>
			</g>
			<g>
				<rect x="52.73" y="21.057" fill="#FFFFFF" width="0.27" height="5.225"/>
			</g>
			<g>
				
					<rect x="52.124" y="21.384" transform="matrix(0.6968 -0.7172 0.7172 0.6968 -0.1119 44.2227)" fill="#FFFFFF" width="0.263" height="1.718"/>
			</g>
			<g>
				
					<rect x="52.612" y="22.112" transform="matrix(0.7081 -0.7061 0.7061 0.7081 -0.0978 44.2507)" fill="#FFFFFF" width="1.721" height="0.263"/>
			</g>
			<g>
				
					<rect x="52.099" y="24.306" transform="matrix(0.7076 -0.7066 0.7066 0.7076 -1.2688 45.8049)" fill="#FFFFFF" width="5.23" height="0.259"/>
			</g>
			<g>
				<rect x="55.162" y="22.141" fill="#FFFFFF" width="0.262" height="1.716"/>
			</g>
			<g>
				<rect x="55.289" y="23.726" fill="#FFFFFF" width="1.719" height="0.263"/>
			</g>
			<g>
				<rect x="52.865" y="26.15" fill="#FFFFFF" width="5.229" height="0.267"/>
			</g>
			<g>
				
					<rect x="56.049" y="25.547" transform="matrix(0.7071 -0.7071 0.7071 0.7071 -1.4889 47.7594)" fill="#FFFFFF" width="1.715" height="0.261"/>
			</g>
			<g>
				
					<rect x="56.776" y="26.032" transform="matrix(0.7108 -0.7034 0.7034 0.7108 -2.4587 47.8011)" fill="#FFFFFF" width="0.261" height="1.717"/>
			</g>
			<g>
				
					<rect x="54.583" y="25.516" transform="matrix(0.7071 -0.7071 0.7071 0.7071 -3.8674 46.9284)" fill="#FFFFFF" width="0.262" height="5.233"/>
			</g>
			<g>
				<rect x="55.289" y="28.583" fill="#FFFFFF" width="1.719" height="0.259"/>
			</g>
			<g>
				<rect x="55.162" y="28.709" fill="#FFFFFF" width="0.262" height="1.72"/>
			</g>
			<g>
				<rect x="52.73" y="26.284" fill="#FFFFFF" width="0.27" height="5.229"/>
			</g>
			<g>
				
					<rect x="53.342" y="29.464" transform="matrix(0.7182 -0.6958 0.6958 0.7182 -6.0323 45.7499)" fill="#FFFFFF" width="0.261" height="1.718"/>
			</g>
			<g>
				
					<rect x="51.398" y="30.193" transform="matrix(0.7065 -0.7077 0.7077 0.7065 -6.1239 45.8789)" fill="#FFFFFF" width="1.717" height="0.26"/>
			</g>
			<g>
				<polygon fill="#FFFFFF" points="52.955,26.375 49.26,30.076 49.074,29.884 52.771,26.192 				"/>
			</g>
			<g>
				<rect x="50.305" y="28.709" fill="#FFFFFF" width="0.264" height="1.72"/>
			</g>
			<g>
				<rect x="48.717" y="28.581" fill="#FFFFFF" width="1.717" height="0.263"/>
			</g>
		</g>
		<g>
			<g>
				
					<rect x="35.346" y="25.439" transform="matrix(-0.6997 -0.7144 0.7144 -0.6997 40.2635 73.025)" fill="#FFFFFF" width="0.265" height="5.223"/>
			</g>
			<g>
				<polygon fill="#FFFFFF" points="35.035,28.629 35.035,30.352 34.768,30.345 34.768,28.629 				"/>
			</g>
			<g>
				<rect x="33.184" y="28.498" fill="#FFFFFF" width="1.713" height="0.263"/>
			</g>
			<g>
				<rect x="32.099" y="26.073" fill="#FFFFFF" width="5.229" height="0.263"/>
			</g>
			<g>
				
					<rect x="33.153" y="25.951" transform="matrix(-0.7071 -0.7071 0.7071 -0.7071 37.8671 69.3027)" fill="#FFFFFF" width="0.268" height="1.716"/>
			</g>
			<g>
				
					<rect x="32.428" y="25.463" transform="matrix(-0.7078 -0.7064 0.7064 -0.7078 38.7659 67.2284)" fill="#FFFFFF" width="1.716" height="0.268"/>
			</g>
			<g>
				<polygon fill="#FFFFFF" points="33.726,22.41 37.417,26.108 37.232,26.298 33.54,22.604 				"/>
			</g>
			<g>
				<rect x="33.184" y="23.642" fill="#FFFFFF" width="1.713" height="0.27"/>
			</g>
			<g>
				<rect x="34.768" y="22.056" fill="#FFFFFF" width="0.267" height="1.719"/>
			</g>
			<g>
				<rect x="37.193" y="20.973" fill="#FFFFFF" width="0.263" height="5.229"/>
			</g>
			<g>
				<polygon fill="#FFFFFF" points="36.205,21.46 37.417,22.676 37.232,22.863 36.022,21.65 				"/>
			</g>
			<g>
				<polygon fill="#FFFFFF" points="38.444,21.46 38.637,21.65 37.417,22.863 37.232,22.676 				"/>
			</g>
			<g>
				<polygon fill="#FFFFFF" points="40.926,22.41 41.119,22.604 37.417,26.298 37.232,26.108 				"/>
			</g>
			<g>
				<rect x="39.621" y="22.058" fill="#FFFFFF" width="0.266" height="1.716"/>
			</g>
			<g>
				<rect x="39.752" y="23.642" fill="#FFFFFF" width="1.72" height="0.27"/>
			</g>
			<g>
				<rect x="37.328" y="26.073" fill="#FFFFFF" width="5.228" height="0.263"/>
			</g>
			<g>
				
					<rect x="41.234" y="24.737" transform="matrix(-0.7126 -0.7016 0.7016 -0.7126 52.8863 72.8585)" fill="#FFFFFF" width="0.265" height="1.719"/>
			</g>
			<g>
				
					<rect x="40.507" y="26.676" transform="matrix(-0.7071 -0.7071 0.7071 -0.7071 51.6598 75.0159)" fill="#FFFFFF" width="1.719" height="0.265"/>
			</g>
			<g>
				<polygon fill="#FFFFFF" points="37.417,26.108 41.119,29.807 40.926,29.993 37.232,26.298 				"/>
			</g>
			<g>
				<rect x="39.752" y="28.498" fill="#FFFFFF" width="1.72" height="0.263"/>
			</g>
			<g>
				<polygon fill="#FFFFFF" points="39.887,28.632 39.887,30.345 39.621,30.352 39.621,28.629 				"/>
			</g>
			<g>
				<rect x="37.193" y="26.202" fill="#FFFFFF" width="0.263" height="5.231"/>
			</g>
			<g>
				<polygon fill="#FFFFFF" points="38.637,30.755 38.444,30.945 37.232,29.729 37.417,29.54 				"/>
			</g>
			<g>
				<polygon fill="#FFFFFF" points="37.232,29.54 37.417,29.729 36.205,30.945 36.022,30.755 				"/>
			</g>
		</g>
		<g>
			<g>
				<rect x="26.154" y="37.132" fill="#FFFFFF" width="0.259" height="5.228"/>
			</g>
			<g>
				
					<rect x="26.031" y="41.042" transform="matrix(-0.7081 -0.7061 0.7061 -0.7081 16.8566 89.316)" fill="#FFFFFF" width="1.716" height="0.264"/>
			</g>
			<g>
				<polygon fill="#FFFFFF" points="26.188,40.475 26.378,40.66 25.163,41.873 24.973,41.687 				"/>
			</g>
			<g>
				<polygon fill="#FFFFFF" points="26.188,37.042 26.375,37.222 22.676,40.923 22.491,40.734 				"/>
			</g>
			<g>
				<rect x="23.723" y="39.563" fill="#FFFFFF" width="0.263" height="1.713"/>
			</g>
			<g>
				<rect x="22.137" y="39.429" fill="#FFFFFF" width="1.719" height="0.263"/>
			</g>
			<g>
				<rect x="21.054" y="37.004" fill="#FFFFFF" width="5.228" height="0.263"/>
			</g>
			<g>
				<polygon fill="#FFFFFF" points="22.754,37.042 22.949,37.222 21.727,38.441 21.542,38.255 				"/>
			</g>
			<g>
				<polygon fill="#FFFFFF" points="21.727,35.824 22.939,37.042 22.754,37.222 21.542,36.013 				"/>
			</g>
			<g>
				<polygon fill="#FFFFFF" points="22.676,33.341 26.375,37.042 26.188,37.222 22.491,33.53 				"/>
			</g>
			<g>
				<rect x="22.137" y="34.576" fill="#FFFFFF" width="1.719" height="0.26"/>
			</g>
			<g>
				<rect x="23.723" y="32.989" fill="#FFFFFF" width="0.263" height="1.718"/>
			</g>
			<g>
				<rect x="26.154" y="31.904" fill="#FFFFFF" width="0.259" height="5.228"/>
			</g>
			<g>
				
					<rect x="24.818" y="32.959" transform="matrix(-0.7072 -0.707 0.707 -0.7072 20.4399 74.6462)" fill="#FFFFFF" width="1.714" height="0.264"/>
			</g>
			<g>
				
					<rect x="26.758" y="32.233" transform="matrix(-0.709 -0.7052 0.7052 -0.709 22.6155 75.515)" fill="#FFFFFF" width="0.263" height="1.717"/>
			</g>
			<g>
				<polygon fill="#FFFFFF" points="29.887,33.341 30.072,33.53 26.375,37.222 26.188,37.042 				"/>
			</g>
			<g>
				<rect x="28.578" y="32.989" fill="#FFFFFF" width="0.263" height="1.718"/>
			</g>
			<g>
				<rect x="28.713" y="34.576" fill="#FFFFFF" width="1.719" height="0.26"/>
			</g>
			<g>
				<rect x="26.282" y="37.004" fill="#FFFFFF" width="5.228" height="0.263"/>
			</g>
			<g>
				<polygon fill="#FFFFFF" points="30.836,35.824 31.025,36.013 29.809,37.222 29.624,37.042 				"/>
			</g>
			<g>
				<polygon fill="#FFFFFF" points="29.809,37.042 31.025,38.255 30.836,38.441 29.624,37.222 				"/>
			</g>
			<g>
				<polygon fill="#FFFFFF" points="26.375,37.042 30.072,40.734 29.887,40.923 26.188,37.222 				"/>
			</g>
			<g>
				<rect x="28.713" y="39.429" fill="#FFFFFF" width="1.713" height="0.263"/>
			</g>
			<g>
				<rect x="28.578" y="39.563" fill="#FFFFFF" width="0.263" height="1.713"/>
			</g>
		</g>
		<g>
			<g>
				<polygon fill="#FFFFFF" points="26.108,52.766 26.294,52.573 29.996,56.273 29.809,56.46 				"/>
			</g>
			<g>
				<rect x="28.629" y="54.967" fill="#FFFFFF" width="1.715" height="0.264"/>
			</g>
			<g>
				<rect x="28.501" y="55.1" fill="#FFFFFF" width="0.264" height="1.72"/>
			</g>
			<g>
				<rect x="26.07" y="52.669" fill="#FFFFFF" width="0.259" height="5.231"/>
			</g>
			<g>
				<polygon fill="#FFFFFF" points="26.108,56.197 26.294,56.012 27.513,57.223 27.321,57.41 				"/>
			</g>
			<g>
				
					<rect x="24.738" y="56.579" transform="matrix(-0.7075 0.7067 -0.7067 -0.7075 83.78 78.7467)" fill="#FFFFFF" width="1.714" height="0.262"/>
			</g>
			<g>
				<polygon fill="#FFFFFF" points="22.413,56.273 26.108,52.573 26.294,52.766 22.6,56.46 				"/>
			</g>
			<g>
				<rect x="23.645" y="55.1" fill="#FFFFFF" width="0.263" height="1.72"/>
			</g>
			<g>
				<rect x="22.061" y="54.965" fill="#FFFFFF" width="1.713" height="0.264"/>
			</g>
			<g>
				<rect x="20.977" y="52.541" fill="#FFFFFF" width="5.228" height="0.262"/>
			</g>
			<g>
				<polygon fill="#FFFFFF" points="21.464,53.792 22.676,52.573 22.863,52.766 21.65,53.978 				"/>
			</g>
			<g>
				<polygon fill="#FFFFFF" points="21.464,51.549 21.65,51.363 22.863,52.573 22.676,52.766 				"/>
			</g>
			<g>
				<polygon fill="#FFFFFF" points="22.413,49.064 22.6,48.884 26.294,52.573 26.108,52.766 				"/>
			</g>
			<g>
				<rect x="22.061" y="50.109" fill="#FFFFFF" width="1.713" height="0.27"/>
			</g>
			<g>
				<rect x="23.645" y="48.525" fill="#FFFFFF" width="0.263" height="1.719"/>
			</g>
			<g>
				<rect x="26.07" y="47.44" fill="#FFFFFF" width="0.259" height="5.229"/>
			</g>
			<g>
				<polygon fill="#FFFFFF" points="24.896,48.117 25.079,47.928 26.294,49.145 26.108,49.334 				"/>
			</g>
			<g>
				<polygon fill="#FFFFFF" points="26.108,49.145 27.321,47.928 27.513,48.117 26.294,49.334 				"/>
			</g>
			<g>
				<polygon fill="#FFFFFF" points="26.108,52.573 29.803,48.884 29.996,49.067 26.294,52.766 				"/>
			</g>
			<g>
				<rect x="28.501" y="48.527" fill="#FFFFFF" width="0.264" height="1.716"/>
			</g>
			<g>
				<rect x="28.629" y="50.111" fill="#FFFFFF" width="1.715" height="0.266"/>
			</g>
			<g>
				<rect x="26.205" y="52.541" fill="#FFFFFF" width="5.225" height="0.262"/>
			</g>
			<g>
				<polygon fill="#FFFFFF" points="30.756,51.363 30.942,51.549 29.729,52.766 29.543,52.573 				"/>
			</g>
			<g>
				<polygon fill="#FFFFFF" points="29.543,52.766 29.729,52.573 30.942,53.792 30.756,53.978 				"/>
			</g>
		</g>
		<g>
			<g>
				<rect x="37.135" y="63.58" fill="#FFFFFF" width="5.229" height="0.264"/>
			</g>
			<g>
				<polygon fill="#FFFFFF" points="40.478,63.622 41.689,62.406 41.876,62.594 40.658,63.812 				"/>
			</g>
			<g>
				<polygon fill="#FFFFFF" points="40.478,63.812 40.658,63.619 41.876,64.838 41.689,65.023 				"/>
			</g>
			<g>
				<polygon fill="#FFFFFF" points="37.04,63.812 37.226,63.619 40.926,67.316 40.734,67.502 				"/>
			</g>
			<g>
				<rect x="39.56" y="66.008" fill="#FFFFFF" width="1.719" height="0.267"/>
			</g>
			<g>
				<rect x="39.433" y="66.141" fill="#FFFFFF" width="0.263" height="1.719"/>
			</g>
			<g>
				<rect x="37.001" y="63.715" fill="#FFFFFF" width="0.263" height="5.229"/>
			</g>
			<g>
				
					<rect x="37.609" y="66.896" transform="matrix(-0.7025 0.7117 -0.7117 -0.7025 112.4769 88.4932)" fill="#FFFFFF" width="0.265" height="1.72"/>
			</g>
			<g>
				
					<rect x="35.668" y="67.624" transform="matrix(-0.7065 0.7077 -0.7077 -0.7065 110.2827 89.7801)" fill="#FFFFFF" width="1.717" height="0.265"/>
			</g>
			<g>
				
					<rect x="32.672" y="65.431" transform="matrix(-0.7072 0.707 -0.707 -0.7072 106.5934 86.9847)" fill="#FFFFFF" width="5.225" height="0.266"/>
			</g>
			<g>
				<rect x="34.576" y="66.141" fill="#FFFFFF" width="0.263" height="1.719"/>
			</g>
			<g>
				<polygon fill="#FFFFFF" points="32.992,66.274 32.986,66.008 34.704,66.008 34.704,66.274 				"/>
			</g>
			<g>
				<rect x="31.904" y="63.582" fill="#FFFFFF" width="5.231" height="0.26"/>
			</g>
			<g>
				<polygon fill="#FFFFFF" points="32.389,64.838 33.607,63.622 33.793,63.812 32.581,65.023 				"/>
			</g>
			<g>
				<polygon fill="#FFFFFF" points="32.389,62.594 32.581,62.406 33.793,63.619 33.607,63.812 				"/>
			</g>
			<g>
				<polygon fill="#FFFFFF" points="33.344,60.113 33.53,59.924 37.226,63.619 37.04,63.812 				"/>
			</g>
			<g>
				<rect x="32.986" y="61.152" fill="#FFFFFF" width="1.718" height="0.267"/>
			</g>
			<g>
				<rect x="34.576" y="59.568" fill="#FFFFFF" width="0.263" height="1.715"/>
			</g>
			<g>
				<rect x="37.001" y="58.487" fill="#FFFFFF" width="0.263" height="5.228"/>
			</g>
			<g>
				
					<rect x="36.395" y="58.817" transform="matrix(-0.709 0.7052 -0.7052 -0.709 104.5076 76.2227)" fill="#FFFFFF" width="0.263" height="1.717"/>
			</g>
			<g>
				<polygon fill="#FFFFFF" points="37.04,60.188 38.251,58.975 38.444,59.16 37.226,60.376 				"/>
			</g>
			<g>
				<polygon fill="#FFFFFF" points="37.04,63.622 40.734,59.924 40.926,60.113 37.226,63.812 				"/>
			</g>
			<g>
				<rect x="39.433" y="59.57" fill="#FFFFFF" width="0.263" height="1.713"/>
			</g>
			<g>
				<rect x="39.56" y="61.152" fill="#FFFFFF" width="1.719" height="0.267"/>
			</g>
		</g>
		<g>
			<g>
				<polygon fill="#FFFFFF" points="52.762,63.888 52.576,63.702 56.273,60.001 56.461,60.193 				"/>
			</g>
			<g>
				<rect x="54.965" y="59.648" fill="#FFFFFF" width="0.268" height="1.719"/>
			</g>
			<g>
				<rect x="55.098" y="61.235" fill="#FFFFFF" width="1.715" height="0.261"/>
			</g>
			<g>
				<rect x="52.67" y="63.66" fill="#FFFFFF" width="5.227" height="0.267"/>
			</g>
			<g>
				<polygon fill="#FFFFFF" points="56.197,63.888 56.012,63.702 57.223,62.483 57.406,62.676 				"/>
			</g>
			<g>
				<polygon fill="#FFFFFF" points="57.223,65.107 56.012,63.888 56.197,63.702 57.406,64.914 				"/>
			</g>
			<g>
				
					<rect x="51.903" y="65.513" transform="matrix(0.7069 0.7073 -0.7073 0.7069 62.408 -19.3208)" fill="#FFFFFF" width="5.23" height="0.262"/>
			</g>
			<g>
				<polygon fill="#FFFFFF" points="55.104,66.352 55.098,66.092 56.812,66.092 56.812,66.352 				"/>
			</g>
			<g>
				<polygon fill="#FFFFFF" points="54.965,67.942 54.965,66.223 55.232,66.223 55.232,67.936 				"/>
			</g>
			<g>
				<rect x="52.545" y="63.792" fill="#FFFFFF" width="0.256" height="5.235"/>
			</g>
			<g>
				
					<rect x="52.418" y="67.703" transform="matrix(0.7082 0.706 -0.706 0.7082 63.4336 -17.8216)" fill="#FFFFFF" width="1.721" height="0.263"/>
			</g>
			<g>
				<polygon fill="#FFFFFF" points="51.551,68.535 51.359,68.346 52.576,67.134 52.762,67.324 				"/>
			</g>
			<g>
				
					<rect x="50.689" y="63.03" transform="matrix(0.6996 0.7145 -0.7145 0.6996 62.1678 -16.5941)" fill="#FFFFFF" width="0.262" height="5.225"/>
			</g>
			<g>
				<rect x="50.109" y="66.223" fill="#FFFFFF" width="0.266" height="1.713"/>
			</g>
			<g>
				<rect x="48.529" y="66.092" fill="#FFFFFF" width="1.713" height="0.26"/>
			</g>
			<g>
				<rect x="47.443" y="63.66" fill="#FFFFFF" width="5.227" height="0.267"/>
			</g>
			<g>
				<polygon fill="#FFFFFF" points="48.117,65.107 47.932,64.914 49.145,63.702 49.33,63.888 				"/>
			</g>
			<g>
				<polygon fill="#FFFFFF" points="49.145,63.888 47.932,62.676 48.117,62.483 49.33,63.702 				"/>
			</g>
			<g>
				<polygon fill="#FFFFFF" points="52.576,63.888 48.881,60.193 49.064,60.001 52.762,63.702 				"/>
			</g>
			<g>
				<rect x="48.529" y="61.237" fill="#FFFFFF" width="1.713" height="0.257"/>
			</g>
			<g>
				<rect x="50.109" y="59.648" fill="#FFFFFF" width="0.266" height="1.719"/>
			</g>
			<g>
				<rect x="52.545" y="58.57" fill="#FFFFFF" width="0.256" height="5.222"/>
			</g>
			<g>
				<polygon fill="#FFFFFF" points="51.359,59.244 51.551,59.052 52.762,60.271 52.576,60.457 				"/>
			</g>
			<g>
				<polygon fill="#FFFFFF" points="52.762,60.457 52.576,60.271 53.795,59.052 53.98,59.244 				"/>
			</g>
		</g>
	</g>
</g>
<g id="day3_x5F_advent1">
</g>
<g id="day4" display="none">
	<g display="inline">
		<path fill="#FFFFFF" stroke="#FFFFFF" stroke-width="0.25" stroke-miterlimit="10" d="M47.615,81.619
			c-0.198-0.03-0.409-0.061-0.775-0.055l-0.137,0.009l-0.045-0.126c-0.449-1.288,1.566-3.021,2.204-3.458
			c0.373-1.132,1.08-1.976,2.067-2.439c0.905-0.424,4.531-7.516,4.47-8.188c-0.008-0.099-0.008-0.211-0.017-0.331
			c-0.029-0.719-0.066-1.809-1.474-3.832c-0.288-0.398-0.501-0.903-0.7-1.384c-0.25-0.627-0.493-1.214-0.813-1.334
			c-0.507-0.213-0.668-0.979-0.828-1.732c-0.075-0.385-0.151-0.746-0.259-0.942c-0.144-0.263-0.629-0.435-1.216-0.435
			c-0.485,0-1.012,0.112-1.475,0.312c-0.829,0.377-4.082,0.63-6.477,0.63c-1.2,0-2.759-0.057-3.443-0.342
			c-0.303,0.046-1.848,0.232-2.403,0.218c-0.074,0.983,1.233,8.221,1.483,8.738c0.244,0.335,0.555,2.559,0.6,3.049
			c0.061,0.702,0.937,4.55,1.3,5.2c0.403,0.745,0.585,2.729,0.585,3.226c0,0.346-0.205,0.764-1.208,0.764
			c-0.113,0-0.243,0-0.364-0.016c-0.024,0-0.055,0-0.07,0c-0.053,0-0.144,0-0.183,0.046c-0.061,0.08-0.014,0.319,0.024,0.479
			c0.038,0.156,0.068,0.294,0.038,0.413c-0.067,0.258-0.472,1.069-0.517,1.162l-0.046,0.097l-0.105,0.006
			c-0.016,0-1.27,0.053-2.068,0.053h-0.129l-0.038-0.135c-0.304-0.947,0.137-2.104,1.057-2.756c0.281-0.211,0.518-0.356,0.699-0.477
			c-0.076-0.195-0.014-0.518,0.077-1.083c0.062-0.407,0.206-1.253,0.076-1.373c-0.463-0.457-0.989-4.417-0.989-4.838
			c0-0.087-0.183-0.361-0.356-0.624c-0.555-0.844-1.582-2.415-1.658-4.794c-0.942-0.559-1.201-1.684-1.376-2.433
			c-0.023-0.094-0.045-0.183-0.068-0.264c-0.197-0.822-0.449-1.343-0.737-1.593c-0.258,0-1.247,1.376-1.985,3.556l-0.029,0.046
			c-0.198,0.281-0.35,0.407-0.517,0.407c-0.061,0-0.115-0.022-0.136-0.046c-0.069,0.126-0.213,0.491-0.358,0.827
			c-0.623,1.579-1.285,3.145-1.854,3.503c-0.7,0.429-2.167,5.738-2.373,6.789c-0.023,0.113-0.053,0.27-0.077,0.457
			c-0.197,1.253-0.417,2.404-0.98,2.629c-0.319,0.124-0.6,0.087-0.767,0.034C23.09,79.19,23,79.184,22.84,79.254
			c-0.244,0.126-0.327,0.607-0.411,1.047c-0.053,0.303-0.098,0.596-0.205,0.817l-0.03,0.072l-0.084,0.03
			c-0.395,0.113-0.867,0.163-1.489,0.163c-0.259,0-0.51-0.008-0.761-0.015c-0.221-0.009-0.433-0.016-0.623-0.016h-0.221l0.039-0.226
			c0.235-1.267,1.209-1.718,1.498-1.819c0.334-0.125,1.345-1.224,1.65-1.957c0.105-0.252,0.083-0.358,0.068-0.381l-0.023-0.054
			l0.015-0.06c0.031-0.106,0.297-0.982,0.86-1.191c0.182-0.133,0.485-1.325,0.737-2.299c0.326-1.272,0.699-2.718,1.125-3.405
			c0.296-0.482,0.417-1.334,0.539-2.232c0.206-1.474,0.44-3.15,1.513-4.219c0.031-0.297,0.061-0.59,0.091-0.866
			c0.184-1.795,0.366-3.488,1.239-5.396c-0.554-0.431-2.827-2.239-3.337-3.901c-0.341-1.095-0.243-1.569-0.173-1.888
			c0.038-0.21,0.059-0.296-0.062-0.482c-0.022-0.033-0.061-0.089-0.105-0.165c-2.966-4.201-2.791-10.044-2.091-14.29
			c-0.547,0.027-0.896,0.132-1.217,0.224c-0.417,0.125-0.836,0.216-1.383,0.057c-0.206,0.281-0.784,1.019-1.422,1.388
			c-0.296,0.174-0.676,0.273-1.116,0.273c-0.594,0-1.157-0.17-1.399-0.341c-0.464-0.301-0.602-2.365-0.365-2.756
			c0.046-0.084,0.228-0.289,0.639-0.772c0.942-1.09,3.435-3.987,3.352-4.633c-0.053-0.384-0.121-0.578-0.175-0.716
			c-0.083-0.227-0.098-0.337,0.084-0.604l0.038-0.046c0.121-0.087,0.341-0.17,0.615-0.276c0.768-0.293,1.909-0.722,2.114-1.673
			c-0.699-0.354-1.589-0.536-2.653-0.536c-0.396,0-0.722,0.023-1.027,0.054c-0.03,0-0.068,0-0.114,0
			c-0.821,0-3.002-0.621-3.368-1.44c-0.486-0.332-0.82-0.605-1.14-0.878c-0.167-0.134-0.334-0.274-0.524-0.422L13.497,23.4
			l-0.015-0.045c-0.16-0.357-0.228-0.562-0.136-0.719c0.044-0.052,0.114-0.125,0.273-0.125c0.077,0,0.183,0.023,0.282,0.034
			c0.091,0.023,0.212,0.039,0.333,0.047c0.373,0.038,0.844,0.318,1.3,0.581c0.35,0.197,0.7,0.406,0.896,0.436
			c0.191,0.024,0.312-0.113,0.358-0.185c0.122-0.179,0.122-0.433,0.015-0.65c-0.266-0.605,0.16-2.141,0.487-2.384
			c0.106-0.178-0.198-1.318-0.41-1.657c-0.099-0.182-0.091-0.421,0.015-0.623c0.106-0.183,0.267-0.282,0.441-0.282
			c0.114,0,0.29,0.045,0.472,0.251c0.265,0.309,0.448,0.669,0.652,1.075c0.138,0.259,0.297,0.559,0.487,0.897
			c0.411,0.666,0.761,1.787,1.034,3.327c0.122,0.667,0.32,0.676,0.601,0.691c0.114,0,0.229,0.008,0.35,0.046
			c0.084,0.027,0.167,0.048,0.236,0.048c0.054,0,0.076-0.006,0.076-0.006c0-0.023-0.015-0.097-0.144-0.263
			c-0.356-0.463-0.479-1.121-0.577-1.658c-0.031-0.156-0.053-0.303-0.076-0.422c-0.046-0.159-0.022-0.285,0.038-0.364
			c0.06-0.081,0.151-0.119,0.259-0.119c0.273,0,0.637,0.258,0.82,0.438c0.305,0.311,1.209,0.764,1.497,0.764
			c0.091,0,0.282-0.178,0.327-0.433C23.425,21.911,23.38,21.656,23,21.5c-0.997-0.392-2.219-1.688-2.478-2.225
			c-0.213-0.414-0.311-0.49-0.51-0.634l-0.068-0.044c-0.129-0.096-0.175-0.244-0.121-0.393c0.106-0.307,0.585-0.535,0.942-0.353
			c0.206,0.1,0.51,0.251,0.723,0.251c0.106,0,0.175-0.031,0.205-0.182c0.053-0.221,0.023-0.769,0-1.297
			c-0.038-0.828-0.083-1.672,0.077-2.071c0.196-0.498,0.509-0.784,0.844-0.784c0.266,0,0.51,0.164,0.73,0.501
			c0.303,0.441,0.303,1.148,0.296,1.825c0,0.513,0,1.042,0.151,1.324c0.176,0.325,0.319,0.622,0.441,0.892
			c0.137,0.315,0.266,0.597,0.434,0.859c0.191,0.309,0.509,0.49,0.829,0.68c0.153,0.081,0.305,0.18,0.45,0.271
			c0.037,0,0.159-0.053,0.334-0.285c0.41-0.529,0.874-1.692,0.639-2.669c-0.388-1.528,2.006-7.83,2.964-8.411
			c0.123-0.077,0.229-0.153,0.312-0.203c0.251-0.167,0.366-0.227,0.472-0.227c0.06,0,0.122,0.022,0.159,0.06
			c0.092,0.084,0.092,0.202,0.085,0.41V8.9c0,0.459-0.184,0.889-0.328,1.242c-0.038,0.123-0.083,0.224-0.115,0.323
			c-0.053,0.165-0.036,0.198-0.036,0.198l0,0c0.006,0.017,0.053,0.039,0.204,0.07c0.153,0.038,0.214,0.118,0.252,0.186
			c0.083,0.19-0.068,0.429-0.206,0.65c-0.046,0.069-0.076,0.126-0.106,0.172c-0.008,0.037-0.031,0.074-0.053,0.122
			c-0.167,0.292-0.274,0.54-0.091,0.752c0.036,0.046,0.06,0.061,0.06,0.068c0.031-0.022,0.1-0.099,0.144-0.148
			c0.099-0.111,0.221-0.25,0.388-0.341c0.29-0.133,0.625-0.046,0.776,0.209c0.091,0.156,0.107,0.334,0.038,0.479
			c-0.159,0.3-1.816,1.957-2.379,2.102c-0.083,0.022-0.121,0.064-0.106,0.133c0.008,0.095,0.114,0.25,0.35,0.25
			c0.067,0,0.137-0.014,0.213-0.038c0.791-0.267,2.112-0.882,2.386-1.148c0.153-0.155,0.244-0.379,0.335-0.615
			c0.076-0.187,0.153-0.376,0.266-0.555c0.175-0.259,0.357-0.499,0.624-0.499c0.266,0,0.45,0.255,0.562,0.446
			c0.281,0.474,0.167,0.793,0.084,1.022c-0.038,0.114-0.077,0.201-0.068,0.286c0,0,0.021,0.015,0.105,0.015
			c0.113,0,0.273-0.023,0.418-0.053c0.273-0.047,0.563-0.091,0.745-0.032c0.274,0.089,0.57,0.378,0.555,0.667
			c-0.008,0.105-0.054,0.35-0.449,0.438c-0.229,0.045-0.584,0.12-0.965,0.193c-0.571,0.11-1.208,0.227-1.476,0.304
			c-0.083,0.03-0.12,0.061-0.129,0.076c-0.024,0.072,0.152,0.346,0.229,0.463c0.357,0.536,0.167,2.923,0.159,2.941
			c-0.015,0.13,0.015,0.226,0.077,0.302c0.076,0.083,0.228,0.129,0.41,0.129c0.114,0,0.212-0.023,0.258-0.038
			c0.175-0.091,0.845-1.035,0.965-1.636c0.075-0.39,0.334-0.679,0.608-0.679c0.152,0,0.501,0.094,0.501,0.969
			c0,1.164-0.874,2.558-1.094,2.87c-0.244,0.307-1.148,1.786-1.164,2.033c0,0.064-0.015,0.205-0.038,0.399
			c-0.053,0.611-0.182,1.889,0.076,2.326c0.121,0.189,0.608,0.407,1.398,0.407c0.858,0,1.695-0.24,2.303-0.655
			c1.118-0.752,2.183-1.54,2.516-2.131c0.176-0.312,0.753-0.674,1.415-1.106c0.646-0.406,1.369-0.866,1.604-1.231
			c0.274-0.407,0.494-1.794,0.235-3.06c-0.121-0.6-0.411-1.407-1.057-1.839l-0.06-0.049c-0.229-0.379-0.152-0.676-0.099-0.868
			c0.046-0.193,0.046-0.2-0.076-0.258c-0.335-0.17-0.448-0.551-0.388-0.832c0.099-0.381,0.486-0.537,0.928-0.312
			c0.206,0.103,0.394,0.216,0.569,0.296c0.32,0.186,0.593,0.334,0.776,0.334c0.038-0.022,0.091-0.03,0.136-0.03
			c0.175,0,0.305,0.155,0.426,0.305c0.07,0.083,0.168,0.215,0.237,0.215c0.06-0.022,0.076-0.068,0.106-0.277
			c0.029-0.197,0.068-0.476,0.296-0.741c0.152-0.187,0.32-0.274,0.486-0.274c0.305,0,0.517,0.305,0.517,0.715
			c0,0.198-0.105,0.615-0.28,1.288c-0.184,0.696-0.41,1.563-0.41,1.974c0,0.476,0.105,0.726,0.212,0.726
			c0.03,0,0.129-0.022,0.305-0.175c0.669-0.589,0.889-0.923,0.965-1.071c0.188-0.377,0.89-0.289,0.966,0.626
			c0.046,0.426-0.548,1.161-1.529,2.315c-0.54,0.639-1.163,1.365-1.216,1.634c-0.153,0.716-3.284,4.015-4.424,4.281
			c-0.062,0.016-0.167,0.037-0.282,0.076c0.077,0.046,0.159,0.102,0.244,0.187c0.19,0.182,0.206,0.361,0.174,0.474
			c-0.061,0.297-0.41,0.476-0.683,0.576c-0.108,0.044-0.404,0.105-0.981,0.208c-0.752,0.145-2.516,0.461-2.69,0.665
			c-0.069,0.1-0.213,0.206-1.05,0.206c-1.688,0-5.329-0.425-6.309-0.885c-0.114,0-0.221-0.005-0.304-0.005
			c-0.297,0-0.35,0.035-0.35,0.02c-0.008,0.054,0.062,0.209,0.114,0.335l0.068,0.163c0.106,0.282,0.928,0.384,1.521,0.468
			c0.501,0.061,0.935,0.118,1.17,0.258c0.167,0.11,0.387,0.201,0.64,0.293c0.462,0.175,0.987,0.384,1.451,0.798
			c0.266,0.236,0.365,0.467,0.327,0.688c-0.076,0.354-0.523,0.498-0.707,0.563c-0.183,0.06-1.482,0.174-2.333,0.174
			c-0.282,0-0.502-0.015-0.654-0.03c-0.015,0-0.015,0-0.015,0c-0.023,0.095,0.221,0.444,0.364,0.627
			c0.222,0.304,0.442,0.607,0.502,0.904c0.122,0.64,0.319,4.988,0.319,6.064c0,0.62,0.379,0.95,0.752,1.277
			c0.214,0.186,0.418,0.353,0.541,0.577c0.068,0.138,0.365,0.267,0.966,0.267c0.608,0,1.291-0.138,1.61-0.335
			c0.091-0.057,0.252-0.087,0.472-0.087c0.965,0,3.253,0.509,5.1,0.92c0.944,0.216,1.772,0.398,2.183,0.46
			c0.926-0.127,3.793-0.297,5.929-0.297c1.27,0,2.1,0.061,2.464,0.178c0.502,0.057,1.093,0.072,1.618,0.072l1.019-0.007
			c0.973,0,1.719,0.038,2.228,0.209c0.222,0.069,5.3,1.718,6.545,2.661c0.298,0.111,2.744,1.015,4.221,2.424
			c1.238,1.192,1.2,1.693,1.001,2.347c-0.037,0.104-0.066,0.215-0.09,0.337l-0.015,0.113l-0.105,0.03
			c-0.062,0.015-0.13,0.023-0.199,0.023c-0.958,0-2.639-1.938-2.902-2.261c-0.023,0.028-0.062,0.081-0.109,0.193
			c-0.014,0.105,0.185,0.481,0.359,0.825c0.676,1.302,1.915,3.728,1.057,6.757c0.251,1.266,0.196,1.521,0.06,2.002
			c0.055,0.206,0.982,0.883,1.658,1.371c1.247,0.905,2.013,1.483,2.121,1.887c0.054,0.222,0.288,0.239,0.798,0.256
			c0.448,0.007,0.994,0.014,1.406,0.388c0.752,0.691,0.859,1.391,0.859,1.995c0,0.278,0.151,0.577,0.334,0.927
			c0.13,0.233,0.267,0.503,0.389,0.814c0.046,0.17,0.128,0.555,0.25,1.105c0.38,1.665,1.262,5.572,1.703,6.062
			c0.485,0.539,0.639,1.171,0.775,1.731c0.038,0.157,0.075,0.307,0.121,0.462c0.206,0.688,0.342,2.787,0.274,3.322
			c-0.029,0.259-0.114,0.531-0.464,0.531c-0.062,0-0.121-0.005-0.19-0.014c-0.092-0.017-0.205-0.023-0.328-0.023
			c-0.188,0-0.264,0.032-0.325,0.053c-0.093,0.047-0.22,0.084-0.531-0.029c-0.017-0.01-0.039-0.01-0.054-0.01
			c-0.122,0-0.26,0.319-0.366,0.561c-0.067,0.166-0.144,0.336-0.228,0.477c-0.16,0.24-0.105,0.436-0.031,0.694
			c0.023,0.072,0.047,0.146,0.062,0.232c0.062,0.329-0.16,0.562-0.334,0.744c-0.061,0.066-0.122,0.129-0.167,0.194l-0.03,0.034
			l-0.055,0.022c-0.204,0.074-0.516,0.108-0.95,0.108c-0.509,0-1.094-0.048-1.519-0.078l-0.282-0.039l-0.008-0.144
			c-0.061-0.611,0.069-0.896,0.205-1.224c0.046-0.095,0.085-0.202,0.13-0.312c0.136-0.349,0.44-0.558,0.736-0.755
			c0.214-0.142,0.404-0.277,0.517-0.43c0.023-0.922,0.685-1.779,1.005-2.156c0.441-2.658-0.769-6.282-1.954-8.616
			c-0.98-0.593-1.961-2.214-2.227-2.928c-0.091-0.25-0.198-0.28-0.435-0.341c-0.288-0.065-0.676-0.165-1.124-0.735
			c-0.403-0.497-0.996-0.747-1.749-0.747c-0.35,0-0.661,0.051-0.866,0.083c-0.464,0.08-0.981-0.404-1.574-0.966
			c-0.479-0.46-1.026-0.981-1.497-1.1c-0.479-0.108-0.821-0.234-1.094-0.333c-0.343-0.11-0.557-0.185-0.791-0.185
			c-0.266,0-0.555-0.191-0.883-0.394c-0.295-0.189-0.638-0.405-0.896-0.405c-0.03,0.007-0.114,0.087-0.189,0.372
			c-0.274,0.983-0.085,3.223,1.573,5.036l0.037,0.045c0.373,0.889,0.312,1.084,0.054,1.513l-0.062,0.115
			c-0.058,0.094-0.249,0.338-0.677,0.873c-1.526,1.889-5.092,6.33-6.149,9.456c-0.546,1.373-0.782,1.773-1.284,1.773
			c-0.082,0-0.182-0.017-0.288-0.039c-0.085-0.008-0.176-0.018-0.273-0.027c-0.737-0.062-1.133,0.328-1.133,1.148
			c0,0.17,0.008,0.274,0.014,0.335c0,0.09,0,0.152-0.059,0.213l-0.093,0.06h-0.046c-0.037,0.032-0.182,0.171-0.5,0.837l-0.039,0.083
			l-0.092,0.011c-0.426,0.069-0.744,0.107-1.01,0.107C47.927,81.672,47.767,81.643,47.615,81.619z M49.638,80.309
			c-0.009-0.061-0.009-0.156-0.009-0.282c0-1.031,0.555-1.584,1.521-1.506c0.106,0.007,0.204,0.023,0.288,0.03
			c0.091,0.016,0.175,0.032,0.243,0.032c0.229,0,0.388-0.156,0.935-1.536c1.089-3.181,4.686-7.659,6.212-9.563
			c0.343-0.415,0.602-0.75,0.647-0.82l0.067-0.122c0.191-0.33,0.249-0.422-0.062-1.155c-1.893-2.076-1.953-4.706-1.565-5.595
			c0.144-0.328,0.326-0.396,0.447-0.396c0.381,0,0.752,0.235,1.112,0.468c0.259,0.166,0.522,0.326,0.684,0.326
			c0.297,0,0.547,0.088,0.904,0.216c0.273,0.094,0.608,0.206,1.071,0.324c0.571,0.144,1.118,0.675,1.658,1.182
			c0.471,0.448,0.942,0.936,1.254,0.874c0.221-0.038,0.556-0.087,0.935-0.087c0.873,0,1.552,0.294,2.03,0.889
			c0.372,0.465,0.669,0.541,0.928,0.606c0.265,0.063,0.524,0.131,0.691,0.568c0.235,0.663,1.208,2.239,2.111,2.759l0.047,0.031
			l0.023,0.047c1.23,2.394,2.485,6.17,2.007,8.936l-0.008,0.052l-0.03,0.046c-0.608,0.686-0.95,1.407-0.95,1.997v0.051L72.8,78.719
			c-0.137,0.255-0.395,0.426-0.646,0.596c-0.258,0.174-0.517,0.338-0.601,0.579c-0.046,0.12-0.091,0.227-0.137,0.326
			c-0.122,0.289-0.213,0.489-0.197,0.898c0.418,0.04,0.987,0.087,1.466,0.087c0.35,0,0.609-0.023,0.776-0.077
			c0.053-0.057,0.106-0.113,0.16-0.166c0.166-0.179,0.266-0.289,0.242-0.435c-0.021-0.066-0.037-0.138-0.053-0.203
			c-0.084-0.274-0.183-0.616,0.076-0.994c0.075-0.106,0.138-0.266,0.198-0.418c0.15-0.361,0.333-0.776,0.699-0.776
			c0.061,0,0.121,0.009,0.174,0.032c0.106,0.037,0.176,0.061,0.214,0.061c0.015,0,0.015-0.008,0.053-0.023
			c0.084-0.037,0.206-0.081,0.47-0.081c0.14,0,0.269,0.005,0.36,0.021c0.104,0.015,0.204,0.008,0.204,0.008l0,0
			c0,0,0.029-0.028,0.061-0.209c0.061-0.498-0.067-2.526-0.265-3.174c-0.047-0.155-0.078-0.314-0.124-0.483
			c-0.135-0.538-0.266-1.093-0.7-1.569c-0.462-0.516-1.161-3.485-1.785-6.236c-0.115-0.514-0.206-0.921-0.243-1.064
			c-0.099-0.275-0.228-0.524-0.356-0.761c-0.198-0.377-0.382-0.721-0.382-1.091c0-0.514-0.06-1.113-0.736-1.723
			c-0.304-0.281-0.744-0.287-1.171-0.296c-0.493-0.014-1.003-0.022-1.147-0.525c-0.075-0.313-1.171-1.104-1.976-1.684
			c-1.407-1.022-1.894-1.41-1.803-1.756c0.13-0.425,0.184-0.627-0.062-1.885l-0.014-0.046l0.014-0.041
			c0.843-2.92-0.363-5.272-1.019-6.539c-0.297-0.568-0.464-0.881-0.371-1.104c0.036-0.112,0.166-0.454,0.441-0.454
			c0.149,0,0.25,0.119,0.264,0.133c0.494,0.598,1.939,2.128,2.632,2.145c0.021-0.086,0.045-0.171,0.068-0.25
			c0.15-0.483,0.267-0.853-0.904-1.982c-1.483-1.417-4.089-2.343-4.121-2.351l-0.053-0.029c-1.148-0.89-6.402-2.607-6.446-2.624
			c-0.518-0.178-1.36-0.182-2.122-0.182h-1.019c-0.539,0-1.162-0.006-1.688-0.071l-0.036-0.008
			c-0.214-0.076-0.799-0.167-2.357-0.167c-2.143,0-5.018,0.175-5.906,0.296l-0.031,0.008l-0.015-0.008
			c-0.426-0.056-1.262-0.244-2.242-0.464c-1.825-0.402-4.098-0.912-5.018-0.912c-0.22,0-0.281,0.026-0.29,0.033
			c-0.364,0.225-1.117,0.388-1.792,0.388c-0.472,0-1.081-0.08-1.286-0.453c-0.091-0.163-0.265-0.318-0.456-0.483
			c-0.388-0.349-0.881-0.771-0.881-1.55c0-1.038-0.191-5.386-0.312-5.994c-0.046-0.218-0.258-0.507-0.44-0.758
			c-0.274-0.375-0.502-0.69-0.42-0.949c0.031-0.089,0.107-0.202,0.297-0.267l0.046-0.009l0.044,0.009
			c0.084,0.019,0.267,0.034,0.632,0.034c0.89,0,2.106-0.114,2.235-0.152c0.349-0.121,0.426-0.224,0.441-0.296
			c0.023-0.073-0.053-0.203-0.205-0.342c-0.411-0.373-0.905-0.563-1.337-0.727c-0.258-0.094-0.502-0.201-0.708-0.323
			c-0.167-0.098-0.601-0.159-1.019-0.212c-0.799-0.103-1.627-0.206-1.816-0.684l-0.062-0.16c-0.121-0.281-0.205-0.483-0.084-0.654
			c0.114-0.167,0.335-0.205,0.655-0.205c0.099,0,0.22,0.008,0.365,0.015l0.061,0.023c0.821,0.4,4.38,0.852,6.188,0.852
			c0.563,0,0.722-0.053,0.76-0.068c0.22-0.258,1.125-0.464,2.919-0.798c0.411-0.076,0.836-0.148,0.919-0.179
			c0.403-0.163,0.449-0.28,0.456-0.318c0.009-0.042-0.044-0.111-0.083-0.141c-0.099-0.107-0.221-0.16-0.305-0.213
			c-0.121-0.076-0.258-0.141-0.235-0.3c0.022-0.175,0.182-0.229,0.752-0.361c1.013-0.235,4.029-3.398,4.15-4.002
			c0.076-0.334,0.541-0.897,1.293-1.794c0.594-0.7,1.482-1.742,1.453-2.049c-0.038-0.369-0.19-0.518-0.289-0.498
			c-0.145,0.3-0.509,0.708-1.04,1.19c-0.199,0.167-0.375,0.258-0.549,0.258c-0.212,0-0.571-0.137-0.571-1.087
			c0-0.453,0.221-1.307,0.411-2.064c0.138-0.512,0.283-1.037,0.283-1.197c0-0.209-0.092-0.35-0.161-0.35
			c-0.022,0-0.098,0.016-0.212,0.145c-0.153,0.189-0.183,0.373-0.212,0.559c-0.023,0.209-0.054,0.467-0.328,0.569
			c-0.044,0.008-0.098,0.016-0.136,0.016c-0.237,0-0.396-0.194-0.517-0.354c-0.046-0.054-0.107-0.137-0.146-0.164
			c-0.25,0.102-0.585-0.068-1.087-0.342c-0.166-0.095-0.35-0.194-0.562-0.296c-0.084-0.046-0.167-0.073-0.236-0.073
			c-0.039,0-0.137,0-0.168,0.146c-0.038,0.145,0.031,0.334,0.19,0.416c0.387,0.193,0.319,0.482,0.267,0.668
			c-0.038,0.178-0.083,0.334,0.038,0.566c0.585,0.391,0.996,1.094,1.187,2.037c0.266,1.312,0.068,2.809-0.29,3.337
			c-0.281,0.421-1.002,0.888-1.718,1.334c-0.57,0.368-1.162,0.744-1.284,0.977c-0.342,0.613-1.3,1.349-2.63,2.255
			c-0.669,0.459-1.581,0.717-2.509,0.717c-0.653,0-1.451-0.159-1.71-0.588c-0.296-0.501-0.221-1.57-0.122-2.547
			c0.015-0.171,0.03-0.304,0.03-0.36c0-0.426,1.163-2.144,1.232-2.247c0.212-0.278,1.034-1.604,1.034-2.657
			c0-0.487-0.129-0.608-0.145-0.608c-0.061,0-0.198,0.144-0.251,0.395c-0.129,0.639-0.829,1.718-1.164,1.882
			c-0.106,0.053-0.258,0.091-0.417,0.091c-0.167,0-0.472-0.038-0.677-0.27c-0.092-0.1-0.198-0.273-0.167-0.57
			c0.074-0.92,0.083-2.433-0.099-2.708c-0.176-0.25-0.365-0.539-0.273-0.793c0.053-0.141,0.183-0.243,0.373-0.296
			c0.273-0.072,0.897-0.194,1.497-0.309c0.381-0.076,0.746-0.141,0.966-0.194c0.076-0.015,0.167-0.054,0.167-0.098
			c0-0.073-0.129-0.244-0.32-0.301c-0.053-0.022-0.318,0-0.555,0.034c-0.167,0.039-0.349,0.068-0.486,0.068
			c-0.357,0-0.434-0.194-0.457-0.312c-0.03-0.185,0.031-0.341,0.077-0.482c0.076-0.206,0.138-0.392-0.045-0.71
			c-0.129-0.203-0.22-0.271-0.258-0.271c-0.091,0-0.259,0.247-0.319,0.339c-0.099,0.148-0.168,0.307-0.236,0.486
			c-0.105,0.258-0.205,0.529-0.417,0.734c-0.366,0.368-1.84,1.015-2.517,1.239c-0.114,0.034-0.229,0.057-0.334,0.057
			c-0.426,0-0.676-0.293-0.714-0.567c-0.031-0.255,0.121-0.471,0.379-0.528c0.41-0.103,2.015-1.661,2.144-1.912
			c0.015-0.038,0.008-0.083-0.023-0.129c-0.038-0.071-0.16-0.136-0.297-0.071c-0.113,0.053-0.198,0.147-0.28,0.254
			c-0.122,0.129-0.244,0.27-0.419,0.27c-0.122,0-0.235-0.064-0.334-0.189c-0.365-0.431-0.092-0.913,0.045-1.168
			c0.016-0.033,0.038-0.071,0.054-0.103c0.03-0.057,0.068-0.129,0.113-0.204c0.054-0.076,0.145-0.218,0.167-0.301
			c-0.182-0.03-0.342-0.076-0.426-0.221c-0.091-0.163-0.046-0.353,0.007-0.5c0.039-0.107,0.076-0.225,0.129-0.349
			c0.138-0.32,0.305-0.723,0.305-1.107v-0.11c0-0.008,0-0.02,0-0.028c-0.047,0.028-0.106,0.058-0.16,0.092
			c-0.084,0.053-0.198,0.128-0.32,0.201c-0.707,0.43-3.184,6.53-2.812,8.028c0.258,1.026-0.166,2.292-0.692,2.976
			c-0.228,0.277-0.439,0.43-0.622,0.43l0,0c-0.076,0-0.161-0.03-0.221-0.068c-0.122-0.097-0.266-0.179-0.41-0.258
			c-0.342-0.202-0.708-0.418-0.958-0.803c-0.167-0.281-0.312-0.581-0.456-0.904c-0.122-0.274-0.251-0.552-0.425-0.867
			c-0.191-0.358-0.191-0.913-0.191-1.494c0-0.627,0-1.273-0.243-1.625c-0.145-0.221-0.289-0.334-0.425-0.334
			c-0.168,0-0.373,0.215-0.502,0.546c-0.137,0.334-0.091,1.216-0.06,1.927c0.03,0.597,0.06,1.122,0,1.396
			c-0.062,0.299-0.259,0.458-0.563,0.458c-0.297,0-0.646-0.166-0.888-0.295c-0.032-0.017-0.077-0.023-0.115-0.023
			c-0.175,0-0.312,0.136-0.319,0.167l0.053,0.042c0.252,0.171,0.388,0.288,0.623,0.772c0.243,0.467,1.392,1.68,2.296,2.044
			c0.464,0.186,0.7,0.562,0.608,0.999c-0.076,0.391-0.38,0.729-0.685,0.729c-0.44,0-1.437-0.55-1.756-0.87
			c-0.167-0.16-0.388-0.296-0.518-0.327c0,0.008,0,0.022,0.008,0.03c0.03,0.129,0.061,0.273,0.092,0.437
			c0.083,0.499,0.197,1.114,0.501,1.505c0.076,0.099,0.304,0.396,0.183,0.647c-0.032,0.072-0.138,0.202-0.404,0.202
			c-0.107,0-0.228-0.023-0.357-0.062c-0.068-0.021-0.153-0.03-0.236-0.038c-0.41-0.015-0.799-0.102-0.951-0.987
			c-0.266-1.495-0.6-2.57-0.98-3.193c-0.205-0.35-0.365-0.65-0.508-0.935c-0.198-0.385-0.359-0.71-0.601-0.993
			c-0.069-0.08-0.137-0.125-0.198-0.125c-0.068,0-0.114,0.076-0.121,0.099c-0.054,0.083-0.062,0.19-0.024,0.258
			c0.106,0.171,0.752,1.798,0.335,2.118c-0.175,0.132-0.608,1.475-0.387,1.949c0.151,0.343,0.137,0.727-0.039,1.012
			c-0.159,0.242-0.418,0.376-0.714,0.338c-0.267-0.038-0.624-0.235-1.034-0.475c-0.402-0.229-0.859-0.497-1.156-0.525
			c-0.136-0.016-0.265-0.037-0.364-0.053c-0.045-0.012-0.106-0.02-0.151-0.027c0.022,0.05,0.045,0.138,0.121,0.282
			c0.167,0.145,0.334,0.271,0.487,0.407c0.326,0.265,0.661,0.547,1.155,0.874l0.053,0.039l0.022,0.068
			c0.191,0.566,2.152,1.25,3.048,1.25c0.031,0,0.061,0,0.092,0c0.303-0.03,0.646-0.054,1.049-0.054c1.178,0,2.174,0.218,2.942,0.639
			l0.113,0.052l-0.023,0.129c-0.151,1.251-1.536,1.771-2.364,2.088c-0.22,0.091-0.409,0.16-0.508,0.212
			c-0.077,0.114-0.068,0.122-0.016,0.254c0.046,0.145,0.137,0.361,0.191,0.791c0.091,0.67-1.301,2.447-3.438,4.915
			c-0.289,0.342-0.569,0.669-0.601,0.722c-0.159,0.266-0.014,2.086,0.258,2.269c0.191,0.137,0.686,0.27,1.195,0.27
			c0.373,0,0.691-0.072,0.935-0.216c0.707-0.415,1.375-1.377,1.382-1.383l0.084-0.119l0.122,0.046
			c0.524,0.174,0.852,0.109,1.293-0.023c0.365-0.103,0.82-0.238,1.542-0.238h0.214L23,36.374c-0.722,4.185-0.958,10.06,1.985,14.229
			c0.052,0.076,0.091,0.133,0.12,0.18c0.19,0.312,0.153,0.522,0.1,0.749c-0.053,0.299-0.145,0.698,0.174,1.708
			c0.541,1.737,3.292,3.777,3.323,3.798l0.122,0.093l-0.062,0.14c-0.904,1.896-1.086,3.604-1.277,5.412
			c-0.03,0.302-0.053,0.611-0.091,0.923l-0.008,0.071l-0.053,0.044c-1.018,0.989-1.246,2.624-1.444,4.062
			c-0.145,0.979-0.252,1.821-0.601,2.367c-0.395,0.648-0.76,2.065-1.072,3.318c-0.448,1.747-0.653,2.424-0.958,2.537
			c-0.319,0.115-0.546,0.643-0.631,0.896c0.038,0.152,0.008,0.347-0.091,0.599c-0.333,0.794-1.406,1.979-1.854,2.139
			c-0.236,0.09-0.958,0.434-1.217,1.354c0.129,0.007,0.266,0.007,0.403,0.014c0.25,0.009,0.501,0.017,0.752,0.017
			c0.547,0,0.965-0.039,1.307-0.126c0.061-0.188,0.107-0.409,0.152-0.657c0.091-0.548,0.19-1.103,0.584-1.304
			c0.267-0.134,0.502-0.096,0.684-0.043c0.153,0.043,0.305,0.065,0.532-0.021c0.412-0.175,0.646-1.639,0.753-2.353
			c0.022-0.191,0.054-0.361,0.076-0.477c0.016-0.052,1.566-6.424,2.524-7.016c0.532-0.326,1.308-2.276,1.725-3.322
			c0.288-0.727,0.365-0.912,0.441-0.995c0.129-0.115,0.305-0.091,0.38-0.026c0,0,0.068-0.02,0.221-0.236
			c0.624-1.815,1.687-3.773,2.318-3.773c0.083,0,0.159,0.021,0.22,0.071c0.365,0.312,0.646,0.882,0.875,1.794
			c0.015,0.093,0.038,0.18,0.06,0.276c0.175,0.75,0.411,1.779,1.293,2.249l0.091,0.049v0.102c0.046,2.338,1.026,3.828,1.604,4.709
			c0.258,0.392,0.411,0.632,0.411,0.822c0,0.614,0.593,4.292,0.882,4.583c0.244,0.244,0.167,0.822,0.03,1.688
			c-0.046,0.27-0.106,0.614-0.106,0.79c0.077-0.023,0.091-0.03,0.129-0.03h0.129l0.038,0.139c0.039,0.131-0.053,0.184-0.19,0.274
			c-0.159,0.104-0.495,0.301-0.928,0.612c-0.752,0.541-1.14,1.453-0.957,2.24c0.646-0.009,1.512-0.036,1.801-0.043
			c0.182-0.351,0.402-0.847,0.44-0.999c0.008-0.037-0.015-0.168-0.038-0.239c-0.053-0.259-0.122-0.57,0.046-0.787
			c0.121-0.14,0.297-0.209,0.562-0.186c0.114,0.014,0.235,0.014,0.342,0.014c0.845,0,0.845-0.295,0.845-0.398
			c0-0.505-0.191-2.405-0.541-3.049c-0.387-0.709-1.277-4.609-1.345-5.347c-0.077-0.822-0.38-2.646-0.524-2.856
			c-0.191-0.262-0.943-4.427-0.952-4.461c-0.508-2.873-0.691-4.461-0.555-4.74c0.047-0.082,0.099-0.121,0.229-0.121
			c0.045,0,0.099,0,0.159,0c0.639,0,2.312-0.22,2.327-0.22l0.052-0.009l0.046,0.023c0.464,0.213,1.658,0.326,3.345,0.326
			c2.608,0,5.625-0.282,6.333-0.598c0.502-0.223,1.079-0.345,1.618-0.345c0.738,0,1.316,0.231,1.528,0.623
			c0.145,0.243,0.22,0.631,0.305,1.047c0.122,0.592,0.281,1.338,0.6,1.458c0.464,0.187,0.723,0.817,1.019,1.536
			c0.197,0.466,0.396,0.95,0.661,1.32c1.459,2.12,1.515,3.271,1.545,4.023c0,0.122,0.008,0.223,0.016,0.315
			c0.075,0.845-3.665,8.067-4.69,8.544c-0.905,0.424-1.553,1.209-1.887,2.284l-0.021,0.055l-0.055,0.034
			c-0.729,0.487-2.31,1.982-2.136,2.957c0.305,0,0.509,0.037,0.692,0.062c0.312,0.044,0.668,0.067,1.352-0.039
			C49.317,80.62,49.499,80.39,49.638,80.309z"/>
	</g>
</g>
<g id="day5" display="none">
	<g display="inline">
		<g>
			<path fill="#FFFFFF" d="M44.998,32.584c-7.444,0-14.449-0.217-19.718-0.608c-8.336-0.621-8.336-1.372-8.336-1.651
				c0-0.284,0-1.037,8.336-1.656c5.27-0.391,12.274-0.608,19.718-0.608c7.453,0,14.457,0.217,19.722,0.608
				c8.341,0.619,8.341,1.372,8.341,1.656c0,0.279,0,1.03-8.341,1.651C59.455,32.367,52.451,32.584,44.998,32.584z M44.998,28.438
				c-17.379,0-27.397,1.116-27.682,1.891c0.284,0.759,10.303,1.877,27.682,1.877c17.387,0,27.405-1.119,27.682-1.891
				C72.403,29.555,62.385,28.438,44.998,28.438z"/>
		</g>
		<g>
			<path fill="#FFFFFF" d="M46.591,63.403c-0.537,0-1.069-0.004-1.598-0.013c-0.515,0.009-1.047,0.013-1.584,0.013
				c-5.793,0-10.773-0.48-14.799-1.434l-0.191-0.044L16.136,29.18l4.088,2.042l3.582-1.695l3.196,1.691l3.24-1.717l2.624,2.055
				l3.183-2.06l3.405,2.219l1.989-2.25l3.556,2.104l3.564-2.104l1.988,2.25l3.4-2.219l3.183,2.06l2.619-2.055l3.244,1.717
				l3.196-1.691l3.582,1.695l4.089-2.042L61.586,61.926l-0.199,0.044C57.36,62.923,52.384,63.403,46.591,63.403z M44.993,62.639
				c0.533,0.006,1.066,0.011,1.598,0.011c5.643,0,10.493-0.461,14.427-1.364l11.466-30.574l-2.699,1.35l-3.572-1.691l-3.215,1.7
				l-3.165-1.675l-2.653,2.088l-3.228-2.086L50.413,32.7l-2.002-2.272l-3.413,2.015l-3.409-2.015L39.587,32.7l-3.538-2.304
				l-3.227,2.086l-2.65-2.088l-3.169,1.675l-3.209-1.7l-3.578,1.691l-2.699-1.35l11.466,30.574
				c3.937,0.903,8.784,1.364,14.426,1.364C43.941,62.649,44.47,62.645,44.993,62.639z"/>
		</g>
		<g>
			<polygon fill="#FFFFFF" points="72.958,30.229 69.731,27.963 66.193,29.377 62.997,27.95 59.758,29.397 57.138,27.657 
				53.951,29.397 50.542,27.524 48.558,29.424 44.998,27.65 41.447,29.424 39.458,27.524 36.049,29.397 32.866,27.657 
				30.238,29.397 27.002,27.95 23.806,29.377 20.269,27.963 17.046,30.229 16.611,29.612 20.171,27.111 23.793,28.558 
				27.002,27.125 30.176,28.541 32.826,26.778 36.049,28.538 39.582,26.596 41.584,28.514 44.998,26.807 48.416,28.514 
				50.422,26.596 53.951,28.538 57.174,26.778 59.829,28.541 62.997,27.125 66.212,28.558 69.829,27.111 73.389,29.612 			"/>
		</g>
		<g>
			<path fill="none" stroke="#FFFFFF" stroke-width="2.2727" stroke-miterlimit="10" d="M73.172,29.945"/>
		</g>
		<g>
			
				<rect x="9.536" y="46.696" transform="matrix(0.3409 0.9401 -0.9401 0.3409 61.0465 6.6953)" fill="#FFFFFF" width="32.425" height="0.373"/>
		</g>
		<g>
			
				<rect x="14.558" y="46.695" transform="matrix(0.1999 0.9798 -0.9798 0.1999 70.0313 8.0048)" fill="#FFFFFF" width="31.112" height="0.376"/>
		</g>
		<g>
			
				<rect x="19.502" y="47.231" transform="matrix(0.1425 0.9898 -0.9898 0.1425 77.006 5.9598)" fill="#FFFFFF" width="31.124" height="0.382"/>
		</g>
		<g>
			
				<rect x="24.999" y="47.413" transform="matrix(0.0586 0.9983 -0.9983 0.0586 85.5791 4.463)" fill="#FFFFFF" width="30.848" height="0.382"/>
		</g>
		<g>
			<rect x="44.812" y="32.003" fill="#FFFFFF" width="0.376" height="31.01"/>
		</g>
		<g>
			
				<rect x="64.88" y="30.923" transform="matrix(0.9547 0.2977 -0.2977 0.9547 16.8608 -17.2522)" fill="#FFFFFF" width="0.381" height="31.612"/>
		</g>
		<g>
			<polygon fill="#FFFFFF" points="57.338,62.404 56.969,62.334 62.816,31.605 63.18,31.674 			"/>
		</g>
		<g>
			
				<rect x="54.751" y="31.858" transform="matrix(0.9898 0.1425 -0.1425 0.9898 7.3188 -7.3453)" fill="#FFFFFF" width="0.377" height="31.126"/>
		</g>
		<g>
			
				<rect x="49.228" y="32.467" transform="matrix(0.9994 0.0337 -0.0337 0.9994 1.6399 -1.6362)" fill="#FFFFFF" width="0.377" height="30.843"/>
		</g>
	</g>
</g>
<g id="day6" display="none">
	<g display="inline">
		<g>
			<path fill="#FFFFFF" d="M53.649,75.021c-0.852-0.644-1.496-1.323-2.094-2.221c-0.091-0.141-0.322-0.173-0.494-0.173
				c-0.717,0-1.818,0.499-2.136,0.807l-0.027,0.037l-0.045,0.018c-1.084,0.472-3.664,0.521-4.725,0.521
				c-2.152,0-5.97-0.218-6.786-1.029c-0.113-0.059-0.53-0.258-0.975-0.258c-0.132,0-0.254,0.013-0.362,0.054
				c-0.309,0.1-0.599,0.458-0.902,0.834c-0.322,0.399-0.653,0.812-1.098,1.065c-0.444,0.25-1.319,0.681-2.189,0.681
				c-0.925,0-1.609-0.485-1.985-1.396c-0.535-1.301-0.113-1.891,0.258-2.412c0.254-0.354,0.472-0.662,0.449-1.196
				c-1.106-1.537-2.198-1.99-3.083-2.349c-0.222-0.091-0.436-0.177-0.63-0.276c-0.612-0.309-0.762-3.346-0.784-3.953
				c-0.109-2.688-0.127-16.371,9.783-22.428c0.309-3.073-0.562-5.87-1.021-6.628c-0.607,0.086-3.096,2.177-4.755,3.568
				c-1.628,1.359-2.644,2.203-3.029,2.348c-0.095,0.037-0.227,0.096-0.371,0.164c-0.494,0.23-1.17,0.544-1.841,0.544l0,0
				c-0.485,0-0.893-0.163-1.21-0.49c-0.621-0.63-0.898-1.836-0.861-3.686l0.004-0.067l0.036-0.06
				c2.503-3.694,9.026-9.878,11.112-11.106l0.05-0.023c1.369-0.426,3.409-0.494,4.76-0.539c0.526-0.019,0.979-0.032,1.138-0.063
				c0.195-0.041,0.604-0.122,0.648-0.227c0.014-0.032,0-0.113-0.086-0.254c-0.109-0.187-2.707-4.574-1.143-7.553
				c0.83-1.578,2.647-2.467,5.408-2.644c0.082-0.004,0.168-0.009,0.259-0.009c1.469,0,4.089,0.793,5.309,2.97
				c0.762,1.364,1.197,3.749-0.975,7.426c2.018,0.412,3.708,0.666,4.461,0.666c0.146,0,0.227-0.009,0.268-0.018
				c0.194-0.037,0.444-0.06,0.707-0.06c0.54,0,1.872,0.096,2.644,0.975c0.29,0.336,1.5,1.501,2.901,2.852
				c2.706,2.607,6.074,5.854,6.709,6.787c0.485,0.716,0.413,2.081-0.163,3.173c-0.512,0.952-1.306,1.501-2.186,1.501
				c-0.507,0-1.038-0.177-1.577-0.521c-1.882-1.201-4.099-2.879-5.712-4.103c-0.966-0.734-1.732-1.311-2.081-1.532
				c-0.326-0.199-0.648-0.309-0.938-0.309c-0.521,0-0.861,0.345-0.975,0.988c-0.231,1.265-0.685,3.31-0.93,4.411
				c2.217,1.682,11.343,11.81,9.565,27.591l-0.013,0.096l-0.073,0.059c-0.729,0.635-1.487,1.106-2.157,1.519
				c-0.926,0.576-1.66,1.034-1.714,1.564c-0.046,0.39-0.041,0.775-0.036,1.183c0.014,0.685,0.022,1.393-0.214,2.104
				c-0.299,0.889-1.677,1.438-2.783,1.438C54.42,75.379,53.967,75.257,53.649,75.021z M51.981,40.126l-0.136-0.09l0.036-0.159
				c0.235-1.047,0.721-3.232,0.956-4.547c0.164-0.88,0.689-1.383,1.451-1.383c0.381,0,0.793,0.136,1.192,0.381
				c0.367,0.235,1.143,0.816,2.117,1.555c1.609,1.225,3.812,2.893,5.681,4.085c0.462,0.299,0.906,0.444,1.318,0.444
				c0.952,0,1.51-0.78,1.76-1.247c0.494-0.929,0.575-2.107,0.19-2.679c-0.604-0.889-4.094-4.253-6.642-6.71
				c-1.469-1.414-2.63-2.529-2.934-2.879c-0.644-0.734-1.809-0.812-2.28-0.812c-0.231,0-0.453,0.019-0.612,0.05
				c-0.095,0.019-0.213,0.027-0.362,0.027c-0.988,0-3.169-0.385-4.887-0.748l-0.336-0.067l0.177-0.295
				c1.777-2.884,2.172-5.382,1.143-7.227c-1.12-1.999-3.541-2.725-4.892-2.725c-0.077,0-0.154,0-0.227,0.005
				c-2.58,0.168-4.271,0.97-5.015,2.389c-1.437,2.743,1.025,6.904,1.129,7.081c0.164,0.272,0.2,0.499,0.113,0.698
				c-0.149,0.331-0.598,0.422-0.992,0.499c-0.199,0.041-0.626,0.059-1.22,0.077c-1.314,0.041-3.296,0.108-4.606,0.512
				c-2.066,1.233-8.4,7.245-10.889,10.886c-0.027,1.649,0.217,2.747,0.725,3.269c0.227,0.235,0.513,0.349,0.866,0.349l0,0
				c0.562,0,1.184-0.29,1.637-0.503c0.159-0.072,0.29-0.136,0.408-0.177c0.331-0.127,1.627-1.215,2.883-2.267
				c2.657-2.227,4.443-3.682,5.101-3.682c0.195,0,0.29,0.104,0.331,0.163c0.48,0.721,1.491,3.795,1.119,7.118l-0.013,0.113
				l-0.104,0.063c-6.9,4.157-8.858,12.263-9.412,16.724c-0.607,4.892-0.014,8.527,0.3,8.886c0.177,0.086,0.376,0.168,0.584,0.254
				c0.898,0.367,2.131,0.875,3.328,2.57l0.036,0.055l0.005,0.068c0.059,0.747-0.254,1.188-0.53,1.572
				c-0.358,0.504-0.64,0.898-0.204,1.95c0.304,0.738,0.812,1.102,1.541,1.102c0.762,0,1.551-0.386,1.954-0.617
				c0.362-0.208,0.666-0.584,0.961-0.947c0.349-0.436,0.68-0.843,1.12-0.993c0.158-0.054,0.335-0.077,0.517-0.077
				c0.64,0,1.215,0.327,1.237,0.336l0.032,0.022l0.027,0.027c0.453,0.508,3.291,0.907,6.464,0.907c2.078,0,3.792-0.182,4.494-0.472
				c0.422-0.381,1.582-0.916,2.439-0.916c0.525,0,0.779,0.213,0.893,0.39c0.566,0.848,1.179,1.492,1.985,2.1
				c0.228,0.167,0.59,0.263,1.021,0.263c1.043,0,2.126-0.517,2.325-1.106c0.214-0.635,0.204-1.273,0.195-1.944
				c-0.009-0.408-0.014-0.825,0.032-1.242c0.086-0.767,0.906-1.274,1.94-1.918c0.634-0.395,1.346-0.839,2.026-1.419
				C63.225,51.446,53.895,41.445,51.981,40.126z"/>
		</g>
		<g>
			<g>
				<path fill="#FFFFFF" d="M49.832,41.001c0-0.53,0.432-0.965,0.966-0.965c0.53,0,0.966,0.435,0.966,0.965
					c0,0.535-0.436,0.966-0.966,0.966C50.264,41.967,49.832,41.536,49.832,41.001z M50.073,41.001c0,0.404,0.321,0.726,0.725,0.726
					c0.399,0,0.726-0.321,0.726-0.726c0-0.398-0.326-0.725-0.726-0.725C50.395,40.276,50.073,40.603,50.073,41.001z"/>
			</g>
			<g>
				<path fill="#FFFFFF" d="M47.071,42.697c0-0.535,0.436-0.971,0.966-0.971c0.535,0,0.971,0.436,0.971,0.971
					c0,0.53-0.436,0.966-0.971,0.966C47.507,43.663,47.071,43.228,47.071,42.697z M47.312,42.697c0,0.398,0.326,0.725,0.725,0.725
					c0.403,0,0.73-0.326,0.73-0.725c0-0.403-0.327-0.73-0.73-0.73C47.639,41.967,47.312,42.294,47.312,42.697z"/>
			</g>
			<g>
				<path fill="#FFFFFF" d="M44.034,43.54c0-0.53,0.436-0.966,0.966-0.966c0.535,0,0.966,0.436,0.966,0.966
					c0,0.535-0.431,0.966-0.966,0.966C44.469,44.506,44.034,44.075,44.034,43.54z M44.274,43.54c0,0.403,0.326,0.726,0.726,0.726
					c0.403,0,0.726-0.322,0.726-0.726c0-0.398-0.322-0.726-0.726-0.726C44.6,42.814,44.274,43.142,44.274,43.54z"/>
			</g>
			<g>
				<path fill="#FFFFFF" d="M43.39,31.173c0-0.422,0.345-0.767,0.766-0.767c0.422,0,0.762,0.345,0.762,0.767
					s-0.34,0.762-0.762,0.762C43.735,31.935,43.39,31.595,43.39,31.173z M43.63,31.173c0,0.29,0.235,0.521,0.525,0.521
					c0.286,0,0.521-0.231,0.521-0.521s-0.235-0.525-0.521-0.525C43.866,30.647,43.63,30.883,43.63,31.173z"/>
			</g>
			<g>
				<path fill="#FFFFFF" d="M43.39,33.48c0-0.422,0.345-0.767,0.766-0.767c0.422,0,0.762,0.345,0.762,0.767s-0.34,0.762-0.762,0.762
					C43.735,34.242,43.39,33.902,43.39,33.48z M43.63,33.48c0,0.285,0.235,0.521,0.525,0.521c0.286,0,0.521-0.236,0.521-0.521
					c0-0.29-0.235-0.526-0.521-0.526C43.866,32.954,43.63,33.19,43.63,33.48z"/>
			</g>
			<g>
				<path fill="#FFFFFF" d="M40.72,43.399c0-0.53,0.431-0.961,0.961-0.961c0.535,0,0.97,0.431,0.97,0.961
					c0,0.535-0.435,0.966-0.97,0.966C41.151,44.365,40.72,43.935,40.72,43.399z M40.956,43.399c0,0.403,0.326,0.73,0.726,0.73
					c0.403,0,0.729-0.327,0.729-0.73c0-0.398-0.326-0.725-0.729-0.725C41.282,42.675,40.956,43.001,40.956,43.399z"/>
			</g>
			<g>
				<path fill="#FFFFFF" d="M37.361,42.557c0-0.535,0.431-0.966,0.965-0.966c0.531,0,0.966,0.431,0.966,0.966
					c0,0.53-0.435,0.966-0.966,0.966C37.792,43.522,37.361,43.087,37.361,42.557z M37.601,42.557c0,0.398,0.321,0.726,0.725,0.726
					c0.399,0,0.726-0.327,0.726-0.726c0-0.403-0.326-0.726-0.726-0.726C37.922,41.831,37.601,42.153,37.601,42.557z"/>
			</g>
		</g>
	</g>
</g>
</svg>
